<svg width="125" height="90" viewBox="0 0 125 90" fill="none" xmlns="http://www.w3.org/2000/svg">
<path fill-rule="evenodd" clip-rule="evenodd" d="M117.03 1.5H7.96988C4.66948 1.5 1.99398 4.18629 1.99398 7.5V82.5C1.99398 85.8137 4.66948 88.5 7.96988 88.5H117.03C120.331 88.5 123.006 85.8137 123.006 82.5V7.5C123.006 4.18629 120.331 1.5 117.03 1.5ZM7.96988 0C3.84438 0 0.5 3.35786 0.5 7.5V82.5C0.5 86.6421 3.84438 90 7.96988 90H117.03C121.156 90 124.5 86.6421 124.5 82.5V7.5C124.5 3.35786 121.156 0 117.03 0H7.96988Z" fill="#1F3C7F"/>
<path fill-rule="evenodd" clip-rule="evenodd" d="M33.3672 27C33.3672 22.4437 37.046 18.75 41.5841 18.75H79.6804C84.2185 18.75 87.8973 22.4437 87.8973 27V41.25H86.4033V27C86.4033 23.2721 83.3934 20.25 79.6804 20.25H41.5841C37.8711 20.25 34.8612 23.2721 34.8612 27V45C34.8612 48.7279 37.8711 51.75 41.5841 51.75H75.572V53.25H41.5841C37.046 53.25 33.3672 49.5563 33.3672 45V27Z" fill="#1F3C7F"/>
<path fill-rule="evenodd" clip-rule="evenodd" d="M85.6564 29.25H34.1143V27.75H85.6564V29.25Z" fill="#1F3C7F"/>
<path fill-rule="evenodd" clip-rule="evenodd" d="M86.4035 37.5H34.8613V36H86.4035V37.5Z" fill="#1F3C7F"/>
<path fill-rule="evenodd" clip-rule="evenodd" d="M47.5596 44.25C47.5596 43.8358 47.894 43.5 48.3066 43.5H52.7885C53.201 43.5 53.5355 43.8358 53.5355 44.25C53.5355 44.6642 53.201 45 52.7885 45H48.3066C47.894 45 47.5596 44.6642 47.5596 44.25Z" fill="#1F3C7F"/>
<path fill-rule="evenodd" clip-rule="evenodd" d="M56.5234 44.25C56.5234 43.8358 56.8579 43.5 57.2704 43.5H61.7524C62.1649 43.5 62.4993 43.8358 62.4993 44.25C62.4993 44.6642 62.1649 45 61.7524 45H57.2704C56.8579 45 56.5234 44.6642 56.5234 44.25Z" fill="#1F3C7F"/>
<path fill-rule="evenodd" clip-rule="evenodd" d="M65.4873 44.25C65.4873 43.8358 65.8217 43.5 66.2343 43.5H70.7162C71.1288 43.5 71.4632 43.8358 71.4632 44.25C71.4632 44.6642 71.1288 45 70.7162 45H66.2343C65.8217 45 65.4873 44.6642 65.4873 44.25Z" fill="#1F3C7F"/>
<path fill-rule="evenodd" clip-rule="evenodd" d="M86.0305 62.25C91.5999 62.25 96.1148 57.7169 96.1148 52.125C96.1148 46.5331 91.5999 42 86.0305 42C80.461 42 75.9461 46.5331 75.9461 52.125C75.9461 57.7169 80.461 62.25 86.0305 62.25ZM86.0305 63.75C92.425 63.75 97.6088 58.5453 97.6088 52.125C97.6088 45.7047 92.425 40.5 86.0305 40.5C79.6359 40.5 74.4521 45.7047 74.4521 52.125C74.4521 58.5453 79.6359 63.75 86.0305 63.75Z" fill="#1F3C7F"/>
<path fill-rule="evenodd" clip-rule="evenodd" d="M80.3097 50.1901C80.6569 49.8414 81.22 49.8414 81.5673 50.1901L86.6424 55.2857L85.4612 56.6249L80.3097 51.4527C79.9624 51.1041 79.9624 50.5387 80.3097 50.1901Z" fill="#1F3C7F"/>
<path fill-rule="evenodd" clip-rule="evenodd" d="M92.7589 47.8814C93.1062 48.23 93.1062 48.7954 92.7589 49.144L86.0131 55.9171C85.6658 56.2657 85.1027 56.2657 84.7555 55.9171C84.4082 55.5684 84.4082 55.003 84.7555 54.6544L91.5013 47.8814C91.8486 47.5327 92.4116 47.5327 92.7589 47.8814Z" fill="#1F3C7F"/>
<path fill-rule="evenodd" clip-rule="evenodd" d="M124.5 75H0.5V73.5H124.5V75Z" fill="#1F3C7F"/>
</svg>
