<svg width="102" height="121" viewBox="0 0 102 121" fill="none" xmlns="http://www.w3.org/2000/svg">
<path fill-rule="evenodd" clip-rule="evenodd" d="M86.5 119C93.9558 119 100 112.956 100 105.5C100 98.0442 93.9558 92 86.5 92C79.0442 92 73 98.0442 73 105.5C73 112.956 79.0442 119 86.5 119ZM86.5 121C95.0604 121 102 114.06 102 105.5C102 96.9396 95.0604 90 86.5 90C77.9396 90 71 96.9396 71 105.5C71 114.06 77.9396 121 86.5 121Z" fill="black"/>
<path fill-rule="evenodd" clip-rule="evenodd" d="M20 11V2H22V11C22 17.0751 17.0751 22 11 22H2V20H11C15.9706 20 20 15.9706 20 11Z" fill="black"/>
<path fill-rule="evenodd" clip-rule="evenodd" d="M78.8418 102.92C79.3067 102.455 80.0605 102.455 80.5254 102.92L87.3195 109.714L85.7383 111.5L78.8418 104.604C78.3769 104.139 78.3769 103.385 78.8418 102.92Z" fill="black"/>
<path fill-rule="evenodd" clip-rule="evenodd" d="M95.5083 99.8418C95.9732 100.307 95.9732 101.06 95.5083 101.525L86.4776 110.556C86.0127 111.021 85.2589 111.021 84.794 110.556C84.3291 110.091 84.3291 109.337 84.794 108.872L93.8247 99.8418C94.2896 99.3769 95.0434 99.3769 95.5083 99.8418Z" fill="black"/>
<path fill-rule="evenodd" clip-rule="evenodd" d="M22 2C20.9986 2 20.0414 2.41259 19.3538 3.14065L12.2088 10.7059L3.13793 19.3448C2.41127 20.0369 2 20.9965 2 22V103C2 107.971 6.02944 112 11 112H74V114H11C4.92487 114 0 109.075 0 103V22C0 20.4492 0.635602 18.9661 1.75862 17.8966L10.7912 9.29412L17.8997 1.7674C18.9652 0.639303 20.4483 0 22 0H77C83.0751 0 88 4.92487 88 11V91H86V11C86 6.02944 81.9706 2 77 2H22Z" fill="black"/>
<path fill-rule="evenodd" clip-rule="evenodd" d="M10 84C10 83.4477 10.4477 83 11 83H78C78.5523 83 79 83.4477 79 84C79 84.5523 78.5523 85 78 85H11C10.4477 85 10 84.5523 10 84Z" fill="black"/>
<path fill-rule="evenodd" clip-rule="evenodd" d="M10 74C10 73.4477 10.4477 73 11 73H78C78.5523 73 79 73.4477 79 74C79 74.5523 78.5523 75 78 75H11C10.4477 75 10 74.5523 10 74Z" fill="black"/>
<path fill-rule="evenodd" clip-rule="evenodd" d="M10 64C10 63.4477 10.4477 63 11 63H78C78.5523 63 79 63.4477 79 64C79 64.5523 78.5523 65 78 65H11C10.4477 65 10 64.5523 10 64Z" fill="black"/>
<path fill-rule="evenodd" clip-rule="evenodd" d="M9 54C9 53.4477 9.44772 53 10 53H77C77.5523 53 78 53.4477 78 54C78 54.5523 77.5523 55 77 55H10C9.44772 55 9 54.5523 9 54Z" fill="black"/>
<path fill-rule="evenodd" clip-rule="evenodd" d="M54 18C54 17.4477 54.4477 17 55 17L77 17C77.5523 17 78 17.4477 78 18C78 18.5523 77.5523 19 77 19L55 19C54.4477 19 54 18.5523 54 18Z" fill="black"/>
<path fill-rule="evenodd" clip-rule="evenodd" d="M54 23C54 22.4477 54.4477 22 55 22L77 22C77.5523 22 78 22.4477 78 23C78 23.5523 77.5523 24 77 24L55 24C54.4477 24 54 23.5523 54 23Z" fill="black"/>
<path fill-rule="evenodd" clip-rule="evenodd" d="M54 28C54 27.4477 54.4477 27 55 27L77 27C77.5523 27 78 27.4477 78 28C78 28.5523 77.5523 29 77 29L55 29C54.4477 29 54 28.5523 54 28Z" fill="black"/>
</svg>
