<svg width="102" height="100" viewBox="0 0 102 100" fill="none" xmlns="http://www.w3.org/2000/svg">
<path fill-rule="evenodd" clip-rule="evenodd" d="M86.5 98C93.9558 98 100 91.9558 100 84.5C100 77.0442 93.9558 71 86.5 71C79.0442 71 73 77.0442 73 84.5C73 91.9558 79.0442 98 86.5 98ZM86.5 100C95.0604 100 102 93.0604 102 84.5C102 75.9396 95.0604 69 86.5 69C77.9396 69 71 75.9396 71 84.5C71 93.0604 77.9396 100 86.5 100Z" fill="black"/>
<path fill-rule="evenodd" clip-rule="evenodd" d="M78.8418 81.9202C79.3067 81.4553 80.0605 81.4553 80.5254 81.9202L87.3195 88.7143L85.7383 90.5L78.8418 83.6037C78.3769 83.1388 78.3769 82.3851 78.8418 81.9202Z" fill="black"/>
<path fill-rule="evenodd" clip-rule="evenodd" d="M95.5083 78.8418C95.9732 79.3067 95.9732 80.0605 95.5083 80.5254L86.4776 89.5561C86.0127 90.021 85.2589 90.021 84.794 89.5561C84.3291 89.0912 84.3291 88.3374 84.794 87.8725L93.8247 78.8418C94.2896 78.3769 95.0434 78.3769 95.5083 78.8418Z" fill="black"/>
<path fill-rule="evenodd" clip-rule="evenodd" d="M92 2H77C72.5817 2 69 5.58172 69 10V25C69 29.4183 72.5817 33 77 33H92C96.4183 33 100 29.4183 100 25V10C100 5.58172 96.4183 2 92 2ZM77 0C71.4772 0 67 4.47715 67 10V25C67 30.5228 71.4772 35 77 35H92C97.5228 35 102 30.5228 102 25V10C102 4.47715 97.5228 0 92 0H77Z" fill="black"/>
<path fill-rule="evenodd" clip-rule="evenodd" d="M25 2H10C5.58172 2 2 5.58172 2 10V25C2 29.4183 5.58172 33 10 33H25C29.4183 33 33 29.4183 33 25V10C33 5.58172 29.4183 2 25 2ZM10 0C4.47715 0 0 4.47715 0 10V25C0 30.5228 4.47715 35 10 35H25C30.5228 35 35 30.5228 35 25V10C35 4.47715 30.5228 0 25 0H10Z" fill="black"/>
<path fill-rule="evenodd" clip-rule="evenodd" d="M15 17C15 18.6569 16.3431 20 18 20C19.6569 20 21 18.6569 21 17C21 15.3431 19.6569 14 18 14C16.3431 14 15 15.3431 15 17ZM18 12C15.2386 12 13 14.2386 13 17C13 19.7614 15.2386 22 18 22C20.7614 22 23 19.7614 23 17C23 14.2386 20.7614 12 18 12Z" fill="black"/>
<path fill-rule="evenodd" clip-rule="evenodd" d="M82 17C82 18.6569 83.3431 20 85 20C86.6569 20 88 18.6569 88 17C88 15.3431 86.6569 14 85 14C83.3431 14 82 15.3431 82 17ZM85 12C82.2386 12 80 14.2386 80 17C80 19.7614 82.2386 22 85 22C87.7614 22 90 19.7614 90 17C90 14.2386 87.7614 12 85 12Z" fill="black"/>
<path fill-rule="evenodd" clip-rule="evenodd" d="M15 82C15 83.6569 16.3431 85 18 85C19.6569 85 21 83.6569 21 82C21 80.3431 19.6569 79 18 79C16.3431 79 15 80.3431 15 82ZM18 77C15.2386 77 13 79.2386 13 82C13 84.7614 15.2386 87 18 87C20.7614 87 23 84.7614 23 82C23 79.2386 20.7614 77 18 77Z" fill="black"/>
<path fill-rule="evenodd" clip-rule="evenodd" d="M25 67H10C5.58172 67 2 70.5817 2 75V90C2 94.4183 5.58172 98 10 98H25C29.4183 98 33 94.4183 33 90V75C33 70.5817 29.4183 67 25 67ZM10 65C4.47715 65 0 69.4772 0 75V90C0 95.5228 4.47715 100 10 100H25C30.5228 100 35 95.5228 35 90V75C35 69.4772 30.5228 65 25 65H10Z" fill="black"/>
<path fill-rule="evenodd" clip-rule="evenodd" d="M63 38.5C63.5523 38.5 64 38.9477 64 39.5V49H44C43.4477 49 43 48.5523 43 48C43 47.4477 43.4477 47 44 47H62V39.5C62 38.9477 62.4477 38.5 63 38.5Z" fill="black"/>
<path fill-rule="evenodd" clip-rule="evenodd" d="M98 40C98.5523 40 99 40.4477 99 41L99 53C99 53.5523 98.5523 54 98 54C97.4477 54 97 53.5523 97 53L97 41C97 40.4477 97.4477 40 98 40Z" fill="black"/>
<path fill-rule="evenodd" clip-rule="evenodd" d="M91 40C91.5523 40 92 40.4477 92 41L92 47C92 47.5523 91.5523 48 91 48C90.4477 48 90 47.5523 90 47L90 41C90 40.4477 90.4477 40 91 40Z" fill="black"/>
<path fill-rule="evenodd" clip-rule="evenodd" d="M2 40C2.55228 40 3 40.4477 3 41L3 60C3 60.5523 2.55228 61 2 61C1.44772 61 1 60.5523 1 60L1 41C1 40.4477 1.44772 40 2 40Z" fill="black"/>
<path fill-rule="evenodd" clip-rule="evenodd" d="M83 40C82.4477 40 82 40.4477 82 41V60C82 60.5523 82.4477 61 83 61C83.5523 61 84 60.5523 84 60V41C84 40.4477 83.5523 40 83 40Z" fill="black"/>
<path fill-rule="evenodd" clip-rule="evenodd" d="M42 66C42 65.4477 42.4477 65 43 65H52C52.5523 65 53 65.4477 53 66C53 66.5523 52.5523 67 52 67H43C42.4477 67 42 66.5523 42 66Z" fill="black"/>
<path fill-rule="evenodd" clip-rule="evenodd" d="M41 18C41 17.4477 41.4477 17 42 17H64C64.5523 17 65 17.4477 65 18C65 18.5523 64.5523 19 64 19H42C41.4477 19 41 18.5523 41 18Z" fill="black"/>
<path fill-rule="evenodd" clip-rule="evenodd" d="M42 8C42.5523 8 43 8.44772 43 9V18C43 18.5523 42.5523 19 42 19C41.4477 19 41 18.5523 41 18V9C41 8.44772 41.4477 8 42 8Z" fill="black"/>
<path fill-rule="evenodd" clip-rule="evenodd" d="M54 17C54.5523 17 55 17.4477 55 18V27C55 27.5523 54.5523 28 54 28C53.4477 28 53 27.5523 53 27V18C53 17.4477 53.4477 17 54 17Z" fill="black"/>
<path fill-rule="evenodd" clip-rule="evenodd" d="M44 57C44 57.5523 43.5523 58 43 58H21C20.4477 58 20 57.5523 20 57C20 56.4477 20.4477 56 21 56H43C43.5523 56 44 56.4477 44 57Z" fill="black"/>
<path fill-rule="evenodd" clip-rule="evenodd" d="M43 67C42.4477 67 42 66.5523 42 66V57C42 56.4477 42.4477 56 43 56C43.5523 56 44 56.4477 44 57V66C44 66.5523 43.5523 67 43 67Z" fill="black"/>
<path fill-rule="evenodd" clip-rule="evenodd" d="M29 57C28.4477 57 28 56.5523 28 56L28 49C28 48.4477 28.4477 48 29 48C29.5523 48 30 48.4477 30 49L30 56C30 56.5523 29.5523 57 29 57Z" fill="black"/>
<path fill-rule="evenodd" clip-rule="evenodd" d="M53 100C52.4477 100 52 99.5523 52 99L52 72C52 71.4477 52.4477 71 53 71C53.5523 71 54 71.4477 54 72L54 99C54 99.5523 53.5523 100 53 100Z" fill="black"/>
<path fill-rule="evenodd" clip-rule="evenodd" d="M65 99C65 99.5523 64.5523 100 64 100H53C52.4477 100 52 99.5523 52 99C52 98.4477 52.4477 98 53 98H64C64.5523 98 65 98.4477 65 99Z" fill="black"/>
<path fill-rule="evenodd" clip-rule="evenodd" d="M54 80C54 79.4477 53.5523 79 53 79L44 79C43.4477 79 43 79.4477 43 80C43 80.5523 43.4477 81 44 81L53 81C53.5523 81 54 80.5523 54 80Z" fill="black"/>
<path fill-rule="evenodd" clip-rule="evenodd" d="M44 97C44 97.5523 43.5523 98 43 98H38C37.4477 98 37 97.5523 37 97C37 96.4477 37.4477 96 38 96H43C43.5523 96 44 96.4477 44 97Z" fill="black"/>
<path fill-rule="evenodd" clip-rule="evenodd" d="M61 72C61 72.5523 60.5523 73 60 73H47C46.4477 73 46 72.5523 46 72C46 71.4477 46.4477 71 47 71H60C60.5523 71 61 71.4477 61 72Z" fill="black"/>
<path fill-rule="evenodd" clip-rule="evenodd" d="M53 1C53 1.55228 53.4477 2 54 2H63C63.5523 2 64 1.55228 64 1C64 0.447715 63.5523 0 63 0H54C53.4477 0 53 0.447715 53 1Z" fill="black"/>
<path fill-rule="evenodd" clip-rule="evenodd" d="M42 26C42.5523 26 43 26.4477 43 27L43 32C43 32.5523 42.5523 33 42 33C41.4477 33 41 32.5523 41 32L41 27C41 26.4477 41.4477 26 42 26Z" fill="black"/>
<path fill-rule="evenodd" clip-rule="evenodd" d="M26 41C26 41.5523 25.5523 42 25 42L20 42C19.4477 42 19 41.5523 19 41C19 40.4477 19.4477 40 20 40L25 40C25.5523 40 26 40.4477 26 41Z" fill="black"/>
<path fill-rule="evenodd" clip-rule="evenodd" d="M94 53C94 53.5523 93.5523 54 93 54L88 54C87.4477 54 87 53.5523 87 53C87 52.4477 87.4477 52 88 52L93 52C93.5523 52 94 52.4477 94 53Z" fill="black"/>
<path fill-rule="evenodd" clip-rule="evenodd" d="M99 60C99 60.5523 98.5523 61 98 61H83C82.4477 61 82 60.5523 82 60C82 59.4477 82.4477 59 83 59H98C98.5523 59 99 59.4477 99 60Z" fill="black"/>
<path fill-rule="evenodd" clip-rule="evenodd" d="M94 41C94 41.5523 93.5523 42 93 42H89C88.4477 42 88 41.5523 88 41C88 40.4477 88.4477 40 89 40H93C93.5523 40 94 40.4477 94 41Z" fill="black"/>
<path fill-rule="evenodd" clip-rule="evenodd" d="M17 50C17 50.5523 16.5523 51 16 51H3C2.44771 51 2 50.5523 2 50C2 49.4477 2.44771 49 3 49H16C16.5523 49 17 49.4477 17 50Z" fill="black"/>
<path fill-rule="evenodd" clip-rule="evenodd" d="M73 55C73 54.4477 73.4477 54 74 54L82 54C82.5523 54 83 54.4477 83 55C83 55.5523 82.5523 56 82 56L74 56C73.4477 56 73 55.5523 73 55Z" fill="black"/>
<path fill-rule="evenodd" clip-rule="evenodd" d="M62 54C62.5523 54 63 54.4477 63 55L63 60C63 60.5523 62.5523 61 62 61C61.4477 61 61 60.5523 61 60L61 55C61 54.4477 61.4477 54 62 54Z" fill="black"/>
<path fill-rule="evenodd" clip-rule="evenodd" d="M62 83C62.5523 83 63 83.4477 63 84L63 89C63 89.5523 62.5523 90 62 90C61.4477 90 61 89.5523 61 89L61 84C61 83.4477 61.4477 83 62 83Z" fill="black"/>
</svg>
