<svg width="37" height="37" viewBox="0 0 37 37" fill="none" xmlns="http://www.w3.org/2000/svg">
<path d="M18.5 37C28.7173 37 37 28.7173 37 18.5C37 8.28273 28.7173 0 18.5 0C8.28273 0 0 8.28273 0 18.5C0 28.7173 8.28273 37 18.5 37Z" fill="#854C9F"/>
<path d="M27.6824 23.3517C27.0011 22.8203 26.2858 22.3412 25.575 21.8529C24.1579 20.8764 22.8635 20.8015 21.8076 22.3707C21.2126 23.2518 20.3837 23.2791 19.5139 22.9044C17.1181 21.8393 15.2696 20.1997 14.1886 17.813C13.7095 16.757 13.714 15.81 14.8359 15.0629C15.4286 14.6678 16.0281 14.2022 15.9713 13.337C15.91 12.2016 13.1236 8.45228 12.0245 8.05714C11.5802 7.8986 11.0948 7.8986 10.6506 8.05714C8.0708 8.90873 7.00347 10.9889 8.02538 13.4506C11.0798 20.7992 16.4527 25.9156 23.8491 29.0381C24.2187 29.1726 24.5983 29.2774 24.9846 29.3515C26.6673 29.3674 28.6407 27.7778 29.2107 26.1995C29.7603 24.6825 28.5999 24.0784 27.6847 23.354L27.6824 23.3517Z" fill="white"/>
<path d="M19.3937 8.81116C24.8007 9.62642 27.2942 12.1471 27.9823 17.4861C28.0458 17.9788 27.8596 18.7214 28.5772 18.7351C29.2948 18.7487 29.145 18.0197 29.1518 17.5247C29.2154 12.4969 24.7439 7.83467 19.5481 7.66435C19.1575 7.71885 18.3468 7.39866 18.2945 8.25933C18.2627 8.84069 18.944 8.74304 19.3937 8.81116V8.81116Z" fill="white"/>
<path d="M20.445 10.276C19.925 10.2146 19.2392 9.97392 19.1188 10.6802C18.9916 11.4228 19.7547 11.3478 20.2543 11.4568C23.5948 12.1881 24.7575 13.378 25.3071 16.6277C25.3865 17.1001 25.2276 17.8381 26.0474 17.7155C26.656 17.6246 26.438 16.9933 26.4879 16.6232C26.5152 13.5052 23.7901 10.6688 20.4518 10.2646L20.445 10.276Z" fill="white"/>
<path d="M20.7561 12.8261C20.4086 12.8261 20.0748 12.8715 19.9385 13.2348C19.7478 13.7776 20.152 13.9161 20.5608 13.9706C21.9233 14.1863 22.6523 14.9789 22.7885 16.3187C22.8271 16.6821 23.061 16.975 23.4198 16.9341C23.9149 16.8774 23.9603 16.4436 23.9467 16.0258C23.9694 14.5202 22.2367 12.7806 20.7674 12.8192L20.7561 12.8261Z" fill="white"/>
</svg>
