<svg width="160" height="160" viewBox="0 0 160 160" fill="none" xmlns="http://www.w3.org/2000/svg">
<path d="M80 160C124.183 160 160 124.183 160 80C160 35.8172 124.183 0 80 0C35.8172 0 0 35.8172 0 80C0 124.183 35.8172 160 80 160Z" fill="#16B260"/>
<path d="M126.916 78.7871C126.839 86.7641 124.696 94.585 120.695 101.487C116.695 108.389 110.974 114.136 104.09 118.167C97.2066 122.199 89.3955 124.378 81.419 124.491C73.4424 124.605 65.5727 122.649 58.5774 118.814L33.0449 126.916L41.3626 102.365C37.0368 95.2653 34.7502 87.1109 34.7536 78.7969C34.7536 66.5793 39.607 54.8621 48.2462 46.223C56.8853 37.5839 68.6025 32.7305 80.8201 32.7305C93.0376 32.7305 104.755 37.5839 113.394 46.223C122.033 54.8621 126.886 66.5793 126.886 78.7969L126.916 78.7871ZM80.8496 40.3509C70.6197 40.3222 60.7962 44.3532 53.5351 51.5591C46.2739 58.7651 42.1681 68.5573 42.1187 78.7871C42.1054 86.9097 44.6896 94.8238 49.4937 101.373L44.6523 115.642L59.5397 110.909C64.5436 114.274 70.2676 116.419 76.2511 117.169C82.2347 117.919 88.3108 117.255 93.9907 115.229C99.6707 113.203 104.796 109.872 108.954 105.505C113.112 101.137 116.187 95.8546 117.932 90.0821C119.677 84.3095 120.042 78.208 118.999 72.2685C117.956 66.329 115.533 60.7173 111.926 55.8846C108.319 51.0519 103.628 47.1332 98.2307 44.4438C92.8332 41.7544 86.8799 40.3694 80.8496 40.4001V40.3509ZM104.113 89.3143C103.829 88.8527 103.073 88.568 101.943 88.0082C100.814 87.4485 95.2654 84.7382 94.2343 84.365C93.2032 83.9918 92.4373 83.8052 91.6909 84.9247C90.9446 86.0442 88.7449 88.5679 88.1164 89.3143C87.4879 90.0606 86.7907 90.1588 85.6613 89.5991C82.3399 88.2814 79.2704 86.4011 76.5875 84.0409C74.1214 81.779 72.0035 79.1648 70.3026 76.283C69.6446 75.1635 70.2338 74.5546 70.7936 73.9948C71.3533 73.4351 71.923 72.6888 72.4926 72.0308C72.9585 71.4676 73.3389 70.8389 73.6218 70.1649C73.7738 69.8562 73.8447 69.5139 73.8275 69.1702C73.8103 68.8265 73.7057 68.4929 73.5236 68.2009C73.2487 67.6412 70.9803 62.1223 70.0474 59.8833C69.1145 57.6443 68.1618 58.0174 67.5039 58.0174C66.8459 58.0174 66.0996 57.9192 65.3435 57.9192C64.7716 57.9347 64.2091 58.0674 63.6905 58.3089C63.172 58.5505 62.7084 58.8958 62.3286 59.3236C61.0598 60.521 60.0551 61.9701 59.3787 63.5783C58.7023 65.1865 58.3691 66.9182 58.4005 68.6626C58.4005 74.1815 62.4465 79.4647 63.0063 80.2503C63.566 81.0359 70.8624 92.6826 82.2931 97.1704C93.7238 101.658 93.7826 100.117 95.8547 99.9693C97.9267 99.822 102.532 97.2588 103.475 94.6467C104.418 92.0345 104.457 89.7365 104.133 89.3143H104.113Z" fill="white"/>
</svg>
