<svg width="145" height="150" fill="none" xmlns="http://www.w3.org/2000/svg"><path fill-rule="evenodd" clip-rule="evenodd" d="M52.175 4.435a1 1 0 011.39-.26l14 9.596.236 1.424-10.023 13.404a1 1 0 11-1.601-1.198l9.398-12.57-13.14-9.006a1 1 0 01-.26-1.39zm19.923 9.477l.995.092a64.816 64.816 0 0131.331 11.58l.002.001c3.164 2.244 18.408 13.495 24.8 34.73A65.746 65.746 0 01132 79.582c-.092 17.334-6.965 30.142-10.596 35.948l-.53.848-1.696-1.06.531-.848c3.534-5.653 10.202-18.09 10.291-34.899a63.766 63.766 0 00-2.689-18.68c-6.197-20.588-20.994-31.512-24.041-33.674a62.814 62.814 0 00-30.362-11.221l-.996-.093.186-1.992z" fill="#186FD5"/><path fill-rule="evenodd" clip-rule="evenodd" d="M113.627 98.072a1 1 0 011.301.555l5.662 14.071 14.035-5.675a1 1 0 01.75 1.854l-14.965 6.05-1.302-.554-6.035-15a1 1 0 01.554-1.3zM11.243 112.607l.575.817c4.198 5.964 13.285 17.015 28.898 23.919l.003.001a65.983 65.983 0 0019.849 5.352c19.022 1.886 33.392-5.508 38.083-8.183a64.06 64.06 0 0018.563-16.048l.616-.787 1.575 1.233-.617.787a66.05 66.05 0 01-19.143 16.55l-.002.002c-4.835 2.758-19.646 10.383-39.277 8.436l-.008-.001a67.974 67.974 0 01-20.453-5.514c-16.073-7.107-25.416-18.478-29.722-24.595l-.576-.818 1.636-1.151zm56.765-96.615l-1 .008c-6.663.054-20.89 1.134-35.03 10.368l-.004.002c-2.22 1.436-26.051 17.594-28.732 47.778-1.43 16.08 3.814 28.617 6.708 34.405l.448.894-1.79.895-.447-.895c-2.975-5.949-8.387-18.874-6.91-35.476C4.016 42.815 28.555 26.2 30.885 24.692 45.48 15.162 60.146 14.056 66.992 14l1-.008.016 2z" fill="#186FD5"/><path fill-rule="evenodd" clip-rule="evenodd" d="M53.203 4.396a1 1 0 011.402-.193l13 9.867.197 1.393-9.769 13.134a1 1 0 01-1.605-1.194l9.179-12.339-12.212-9.267a1 1 0 01-.192-1.401zM10.026 112.94l1.059-.938 16.975 1.026a1 1 0 11-.12 1.996l-15.977-.965-.965 16.001a1 1 0 01-1.996-.12l1.024-17zm57.872-77.1L104 57.718v44.924L66.784 123.71l-.138-20.544.529-.285c6.945-3.753 13.888-7.508 20.83-11.267v-23.27L67.877 56.75 46.34 68.48v17.874l12.407.12.066 16.763-29.812.067V57.942L67.898 35.84zM31 59.106V101.3l25.804-.057-.05-12.787-12.415-.12V67.291l23.567-12.834 22.098 12.73v25.616l-.523.284c-6.94 3.758-13.883 7.513-20.827 11.266l.107 15.937L102 101.475V58.843L67.866 38.16 31 59.106z" fill="#186FD5"/></svg>