<svg width="163" height="150" fill="none" xmlns="http://www.w3.org/2000/svg"><g clip-path="url(#clip0_405_812)" fill-rule="evenodd" clip-rule="evenodd" fill="#186FD5"><path d="M33.026 85.4c-17.374 0-31.462 14.11-31.462 31.518 0 17.41 14.088 31.519 31.462 31.519 17.374 0 31.462-14.109 31.462-31.519 0-17.409-14.087-31.519-31.462-31.519zM-.436 116.917c0-18.51 14.98-33.519 33.462-33.519 18.482 0 33.462 15.009 33.462 33.519 0 18.511-14.98 33.519-33.462 33.519-18.482 0-33.462-15.008-33.462-33.519z"/><path d="M43.184 112.112c-.097-5.082-4.315-10.202-10.16-10.198-5.834.003-10.011 5.181-10.157 10.208-.143 4.886 3.64 8.138 4.201 8.601a1 1 0 01-1.273 1.543c-.591-.489-5.1-4.29-4.927-10.202m0 0c.171-5.914 5.055-12.146 12.155-12.15 7.09-.004 12.046 6.15 12.16 12.16v.001c.112 6.017-4.65 9.779-5.202 10.208a1 1 0 11-1.229-1.577c.534-.416 4.523-3.632 4.432-8.594"/><path d="M27.323 121.04a1 1 0 01-.436 1.345 32.19 32.19 0 00-7.968 5.744 32.68 32.68 0 00-7.774 12.243 1 1 0 11-1.884-.671 34.674 34.674 0 018.251-12.993l.002-.002a34.19 34.19 0 018.464-6.103 1 1 0 011.345.437zm11.145-.025a1 1 0 011.337-.461 33.473 33.473 0 018.733 6.145l.002.002a33.893 33.893 0 018.257 13.001 1 1 0 01-1.888.661 31.894 31.894 0 00-7.768-12.234 31.5 31.5 0 00-8.211-5.777 1 1 0 01-.462-1.337zM129.14 85.4c-17.375 0-31.462 14.11-31.462 31.518 0 17.41 14.087 31.519 31.462 31.519 17.374 0 31.461-14.109 31.461-31.519 0-17.409-14.087-31.519-31.461-31.519zm-33.462 31.518c0-18.51 14.979-33.519 33.462-33.519 18.482 0 33.461 15.009 33.461 33.519 0 18.511-14.979 33.519-33.461 33.519-18.483 0-33.462-15.008-33.462-33.519z"/><path d="M129.138 99.914h.001c7.026 0 12.041 6.146 12.156 12.16m-12.156-10.16c5.788 0 10.059 5.119 10.156 10.198zm0 0c-5.838.003-10.015 5.181-10.16 10.208-.144 4.886 3.639 8.138 4.201 8.601a1 1 0 01-1.273 1.543c-.592-.489-5.101-4.29-4.928-10.202m12.159-12.15c-7.104.004-11.987 6.235-12.159 12.15zm5.726 20.792c.534-.417 4.526-3.633 4.431-8.594m2-.038c.115 6.019-4.651 9.78-5.202 10.209a1 1 0 11-1.229-1.577"/><path d="M123.435 121.04a1 1 0 01-.437 1.345 32.118 32.118 0 00-7.964 5.744 32.65 32.65 0 00-7.777 12.243 1 1 0 11-1.884-.671 34.623 34.623 0 018.255-12.993l.001-.002a34.118 34.118 0 018.461-6.103 1 1 0 011.345.437zm11.144-.025a1 1 0 011.337-.461 33.41 33.41 0 018.734 6.145l.002.002a33.96 33.96 0 018.259 13.001 1 1 0 11-1.887.661 31.973 31.973 0 00-7.772-12.234 31.44 31.44 0 00-8.211-5.777 1.001 1.001 0 01-.462-1.337zM80.196 1.566c-17.374 0-31.462 14.11-31.462 31.52 0 17.409 14.088 31.518 31.462 31.518 17.374 0 31.462-14.11 31.462-31.519S97.57 1.566 80.196 1.566zm-33.462 31.52c0-18.511 14.98-33.52 33.462-33.52 18.482 0 33.462 15.009 33.462 33.52 0 18.51-14.98 33.518-33.462 33.518-18.482 0-33.462-15.008-33.462-33.519z"/><path d="M80.195 18.077c-5.837 0-10.014 5.18-10.16 10.208-.143 4.887 3.64 8.139 4.198 8.595a1 1 0 01-1.267 1.548c-.595-.488-5.103-4.288-4.93-10.2m0 0c.171-5.915 5.055-12.151 12.16-12.151 7.026 0 12.041 6.147 12.155 12.16l-1 .02 1-.02c.116 6.015-4.65 9.78-5.205 10.208a1 1 0 11-1.222-1.583c.53-.409 4.523-3.63 4.428-8.586-.097-5.08-4.368-10.2-10.157-10.2m11.157 10.18z"/><path d="M74.491 37.2a1 1 0 01-.437 1.345 32.184 32.184 0 00-15.74 17.987 1 1 0 01-1.886-.665 34.184 34.184 0 0116.718-19.104 1 1 0 011.345.437zm11.145-.022a1 1 0 011.337-.461 33.536 33.536 0 0116.996 19.154 1 1 0 01-1.889.657 31.539 31.539 0 00-15.982-18.013 1 1 0 01-.462-1.337zm-4.154 49.848L60.689 99.984l-1.058-1.697 20.793-12.958 1.058 1.697z"/><path d="M81.481 85.329l20.797 12.958-1.057 1.697-20.797-12.958 1.057-1.697z"/><path d="M81.953 65.967v20.72h-2v-20.72h2z"/></g><defs><clipPath id="clip0_405_812"><path fill="#fff" d="M0 0h162.162v150H0z"/></clipPath></defs></svg>