<svg width="131" height="150" fill="none" xmlns="http://www.w3.org/2000/svg"><g clip-path="url(#clip0_405_796)" fill-rule="evenodd" clip-rule="evenodd" fill="#186FD5"><path d="M64.217 2.679V.629h2v2.05h-2zm0 9.319V6.745h2v5.253h-2zm0 21.01V22.503h2v10.505h-2zm0 21.01V43.513h2v10.505h-2zm0 15.757v-5.252h2v5.252h-2zm0 4.084v-2.05h2v2.05h-2zm-2.338 2.115l1.775-1.018.995 1.735-1.775 1.018-.995-1.735zm-2.525 3.754l-4.545 2.61-.996-1.734 4.545-2.61.996 1.734zM45.718 87.56l-9.091 5.22-.996-1.733 9.09-5.221.997 1.734zM27.536 98.001l-9.091 5.22-.996-1.734 9.09-5.22.997 1.734zM9.354 108.442l-4.546 2.61-.995-1.734 4.545-2.611.996 1.735zM.28 111.347l1.775-1.018.995 1.735-1.776 1.018-.995-1.735zM67.517 77.35l-1.775-1.018.995-1.735 1.776 1.019-.996 1.734zm8.066 4.633l-4.546-2.61.996-1.734 4.546 2.61-.996 1.734zm18.181 10.442l-9.09-5.221.995-1.734 9.091 5.22-.996 1.735zm18.182 10.441l-9.091-5.22.996-1.735 9.091 5.22-.996 1.735zm13.637 7.831l-4.546-2.611.996-1.734 4.546 2.61-.996 1.735zm3.532 2.029l-1.775-1.022.997-1.733 1.776 1.022-.998 1.733z"/><path d="M130.613 35.993v76.412l-66.396 38.441V74.434l66.396-38.441zM66.217 75.587v71.79l62.396-36.125v-71.79L66.217 75.587z"/><path d="M-.195 36.086L66.09 74.465l-.053 76.38-66.286-38.379.053-76.38zm1.997 3.467l-.05 71.761 62.289 36.064.05-71.76-62.29-36.066z"/><path d="M65.42-.564l65.989 38.206-66.392 38.442-65.99-38.21L65.42-.564zM3.018 37.874l61.998 35.899 62.401-36.131L65.419 1.747 3.02 37.874z"/></g><defs><clipPath id="clip0_405_796"><path fill="#fff" d="M0 0h130.435v150H0z"/></clipPath></defs></svg>