<svg width="42" height="48" fill="none" xmlns="http://www.w3.org/2000/svg"><path stroke="#fff" stroke-width="1.2" d="M.6.6h40.8v46.8H.6z"/><path stroke="#fff" stroke-width=".6" d="M6 29.7h30m-30 6h30m-30 6h21.6"/><path d="M6 21V9h4.12c.956 0 1.738.17 2.345.51.611.336 1.063.79 1.357 1.365.294.574.44 1.215.44 1.922 0 .707-.146 1.35-.44 1.928-.29.578-.738 1.039-1.345 1.382-.607.34-1.385.51-2.334.51H7.191v-1.289h2.905c.655 0 1.18-.111 1.577-.334.397-.223.685-.523.863-.902.183-.383.274-.815.274-1.295s-.091-.91-.274-1.29a1.936 1.936 0 00-.869-.89c-.4-.219-.932-.328-1.595-.328H7.476V21H6zm14.403 0h-3.762V9h3.929c1.183 0 2.195.24 3.036.72a4.748 4.748 0 011.935 2.057c.448.891.672 1.957.672 3.2 0 1.25-.226 2.326-.678 3.228a4.791 4.791 0 01-1.977 2.074c-.865.48-1.917.721-3.155.721zm-2.286-1.29h2.191c1.008 0 1.843-.19 2.506-.573a3.56 3.56 0 001.483-1.635c.325-.707.488-1.549.488-2.525 0-.97-.161-1.803-.483-2.502a3.519 3.519 0 00-1.44-1.618c-.64-.378-1.435-.568-2.387-.568h-2.358v9.422zM28.69 21V9H36v1.29h-5.834v4.054h5.286v1.289h-5.286V21H28.69z" fill="#fff"/></svg>