<svg width="148" height="150" fill="none" xmlns="http://www.w3.org/2000/svg"><g clip-path="url(#clip0_405_831)" fill-rule="evenodd" clip-rule="evenodd" fill="#186FD5"><path d="M8.702 66.481a7.208 7.208 0 00-7.21 7.206 7.208 7.208 0 007.21 7.206 7.208 7.208 0 007.21-7.206 7.208 7.208 0 00-7.21-7.206zm-9.21 7.206c0-5.084 4.124-9.206 9.21-9.206 5.087 0 9.21 4.122 9.21 9.206 0 5.085-4.123 9.206-9.21 9.206-5.086 0-9.21-4.121-9.21-9.206zm28.915 41.7a7.208 7.208 0 00-7.21 7.206 7.208 7.208 0 007.21 7.206 7.208 7.208 0 007.21-7.206 7.208 7.208 0 00-7.21-7.206zm-9.21 7.206c0-5.085 4.124-9.206 9.21-9.206 5.087 0 9.21 4.121 9.21 9.206 0 5.085-4.123 9.206-9.21 9.206-5.086 0-9.21-4.121-9.21-9.206zm57.158 11.503a7.208 7.208 0 00-7.21 7.206 7.208 7.208 0 007.21 7.206 7.208 7.208 0 007.21-7.206 7.208 7.208 0 00-7.21-7.206zm-9.21 7.206c0-5.085 4.124-9.206 9.21-9.206 5.086 0 9.21 4.121 9.21 9.206 0 5.085-4.124 9.206-9.21 9.206-5.086 0-9.21-4.121-9.21-9.206zm55.522-29.092a7.208 7.208 0 00-7.21 7.206 7.208 7.208 0 007.21 7.205 7.207 7.207 0 007.21-7.205 7.208 7.208 0 00-7.21-7.206zm-9.21 7.206c0-5.085 4.124-9.206 9.21-9.206 5.086 0 9.21 4.121 9.21 9.206 0 5.084-4.124 9.205-9.21 9.205-5.086 0-9.21-4.121-9.21-9.205zm25.624-51.622a7.208 7.208 0 00-7.21 7.206 7.208 7.208 0 007.21 7.206 7.208 7.208 0 007.21-7.206 7.208 7.208 0 00-7.21-7.206zM129.871 75c0-5.085 4.124-9.206 9.21-9.206 5.086 0 9.21 4.121 9.21 9.206 0 5.085-4.124 9.206-9.21 9.206-5.086 0-9.21-4.121-9.21-9.206zm-9.182-54.47a7.208 7.208 0 00-7.21 7.205 7.208 7.208 0 007.21 7.206 7.208 7.208 0 007.21-7.206 7.208 7.208 0 00-7.21-7.206zm-9.21 7.205c0-5.084 4.124-9.206 9.21-9.206 5.086 0 9.21 4.122 9.21 9.206 0 5.085-4.124 9.206-9.21 9.206-5.086 0-9.21-4.121-9.21-9.206zM74.712 1.492a7.208 7.208 0 00-7.21 7.206 7.208 7.208 0 007.21 7.206 7.208 7.208 0 007.21-7.206 7.208 7.208 0 00-7.21-7.206zm-9.21 7.206c0-5.085 4.124-9.206 9.21-9.206 5.086 0 9.21 4.121 9.21 9.206 0 5.085-4.124 9.206-9.21 9.206-5.086 0-9.21-4.121-9.21-9.206zM22.455 27.753a7.225 7.225 0 003.021 5.858 7.503 7.503 0 004.195 1.34 7.213 7.213 0 005.093-2.11 7.203 7.203 0 00-5.099-12.302c-4.176 0-7.147 3.695-7.21 7.214zm-2-.024c.074-4.441 3.774-9.19 9.21-9.19a9.204 9.204 0 110 18.411h-.01a9.502 9.502 0 01-5.326-1.701l-.01-.008a9.232 9.232 0 01-3.864-7.494v-.018zM48.65 59.34a7.208 7.208 0 00-7.21 7.205 7.208 7.208 0 007.21 7.206 7.208 7.208 0 007.21-7.206 7.208 7.208 0 00-7.21-7.206zm-9.21 7.205c0-5.085 4.123-9.206 9.21-9.206 5.086 0 9.21 4.121 9.21 9.206 0 5.084-4.124 9.206-9.21 9.206-5.087 0-9.21-4.122-9.21-9.206zm51.692-16.147a7.208 7.208 0 00-7.21 7.206 7.208 7.208 0 007.21 7.206 7.208 7.208 0 007.21-7.206 7.208 7.208 0 00-7.21-7.206zm-9.21 7.206c0-5.085 4.124-9.206 9.21-9.206 5.086 0 9.21 4.121 9.21 9.206 0 5.085-4.124 9.206-9.21 9.206-5.086 0-9.21-4.121-9.21-9.206zM76.355 92.74a7.208 7.208 0 00-7.21 7.205 7.208 7.208 0 007.21 7.206 7.208 7.208 0 007.21-7.206 7.208 7.208 0 00-7.21-7.205zm-9.21 7.205c0-5.084 4.124-9.205 9.21-9.205 5.086 0 9.21 4.12 9.21 9.205s-4.124 9.206-9.21 9.206c-5.086 0-9.21-4.121-9.21-9.206z"/><path d="M11.334 81.74c1.905 12.388 7.551 26.106 12.358 34.446l-1.733.998c-4.901-8.505-10.651-22.456-12.602-35.14l1.977-.303zm37.871 53.761c5.977 2.824 12.667 5.238 19.026 5.789l-.173 1.993c-6.701-.581-13.64-3.107-19.708-5.973-6.037-2.852-11.279-6.075-14.642-8.142l-.067-.041 1.047-1.704.05.03c3.364 2.068 8.53 5.244 14.467 8.048zm54.301.496c6.319-2.761 11.995-6.219 15.513-9.536l1.372 1.455c-3.746 3.532-9.647 7.101-16.084 9.914-6.444 2.816-13.52 4.917-19.654 5.453l-.175-1.993c5.854-.511 12.714-2.534 19.028-5.293zm34.821-36.787c2.354-6.164 3.865-12.415 4.024-17.023l1.999.069c-.17 4.91-1.758 11.392-4.155 17.667-2.398 6.279-5.648 12.461-9.212 16.745l-1.538-1.279c3.375-4.056 6.529-10.019 8.882-16.18zm-1.345-48.92c-2.774-6.388-6.395-12.697-10.171-17.328l1.55-1.264c3.921 4.81 7.63 11.288 10.455 17.796 2.822 6.498 4.802 13.115 5.202 18.207l-1.994.156c-.376-4.78-2.264-11.168-5.042-17.566zm-22.089-27.95c-1.645-1.059-16.9-10.738-32.075-12.32l.208-1.988c15.696 1.635 31.31 11.57 32.95 12.626l-1.083 1.682zM66.815 10.814c-14.453 2.914-27.774 11.424-29.987 12.84L35.75 21.97l.005-.003c2.235-1.43 15.822-10.12 30.665-13.113l.395 1.961zm-41.878 23.76c-.592.785-11.109 14.971-13.603 31.06l-1.977-.306C11.934 48.713 22.724 34.186 23.34 33.37l1.597 1.205zm90.571-1.864l-15.069 22.592 30.931 17.847-.184 1.815-53.202 17.724-.966-.189L53.27 72.155l1.3-1.519 23.32 19.976 50.554-16.842L98.515 56.5l-.332-1.42 15.661-23.48 1.664 1.11z"/><path d="M75.263 15.601l13.841 34.077-1.27 1.316-49.454-18.06 6.677 26.379-1.939.49-7.141-28.212 1.312-1.185 49.114 17.936L73.41 16.354l1.853-.753zm5.019 90.848l1.208-.917 36.118 7.759-.421 1.956-34.979-7.515c-.526 8.694-1.05 17.387-1.572 26.081l-.06.998-1.996-.12.06-.998c.545-9.081 1.093-18.162 1.642-27.244zM41.517 69.733l1.017 1.136c-2.005 14.65-4.01 29.301-6.011 43.951l32.855-12.555.714 1.868-34.431 13.158-1.348-1.07c2.025-14.819 4.051-29.638 6.08-44.457l-24.782.651-.052-1.999 25.958-.683zm42.579-11.339l-28.893 5.634-.383-1.963 28.893-5.634.383 1.963z"/></g><defs><clipPath id="clip0_405_831"><path fill="#fff" d="M0 0h147.783v150H0z"/></clipPath></defs></svg>