<svg width="269" height="42" fill="none" xmlns="http://www.w3.org/2000/svg"><path d="M43.998 32.559V11.455h7.88c1.72 0 3.145.298 4.275.896 1.13.598 1.976 1.415 2.537 2.453.562 1.03.842 2.191.842 3.483 0 1.298-.284 2.466-.853 3.503-.561 1.03-1.41 1.848-2.547 2.453-1.13.598-2.551.896-4.264.896h-5.42v-2.7h5.117c1.087 0 1.969-.178 2.645-.535.677-.364 1.173-.86 1.49-1.484.317-.625.475-1.337.475-2.133 0-.797-.158-1.505-.475-2.123-.317-.618-.817-1.103-1.5-1.453-.677-.35-1.57-.526-2.678-.526h-4.188V32.56h-3.336zm26.124.319c-1.633 0-3.04-.333-4.22-1a6.91 6.91 0 01-2.721-2.833c-.633-1.223-.95-2.655-.95-4.297 0-1.622.317-3.05.95-4.287.64-1.237 1.533-2.202 2.677-2.896 1.151-.694 2.497-1.04 4.037-1.04a8.45 8.45 0 012.72.443 6.649 6.649 0 012.365 1.39c.698.633 1.248 1.454 1.651 2.464.404 1.003.605 2.222.605 3.658v1.092h-13.18v-2.308h10.017c0-.81-.173-1.529-.518-2.154a3.815 3.815 0 00-1.457-1.494c-.62-.364-1.346-.546-2.181-.546-.907 0-1.698.213-2.375.639a4.351 4.351 0 00-1.554 1.649 4.584 4.584 0 00-.54 2.194v1.804c0 1.058.194 1.958.583 2.7a4.105 4.105 0 001.651 1.7c.706.384 1.53.577 2.472.577.612 0 1.17-.082 1.674-.247a3.643 3.643 0 001.306-.763c.367-.337.648-.752.842-1.247l3.055.526a5.22 5.22 0 01-1.317 2.256c-.626.64-1.414 1.137-2.364 1.495-.943.35-2.019.525-3.228.525zM91.418 16.73v2.66h-7.416v13.169h-3.185V16.73h10.601zm6.574 11.511l7.309-11.51h3.476v15.828h-3.163V21.038l-7.276 11.52h-3.509V16.732h3.163v11.51zm22.109 4.637c-1.555 0-2.911-.34-4.07-1.02-1.159-.68-2.058-1.632-2.699-2.854-.64-1.223-.961-2.652-.961-4.287 0-1.642.321-3.078.961-4.308.641-1.23 1.54-2.184 2.699-2.864 1.159-.68 2.515-1.02 4.07-1.02 1.554 0 2.911.34 4.069 1.02 1.159.68 2.059 1.635 2.699 2.864.641 1.23.961 2.666.961 4.308 0 1.635-.32 3.064-.961 4.287-.64 1.222-1.54 2.174-2.699 2.854-1.158.68-2.515 1.02-4.069 1.02zm.01-2.586c1.008 0 1.843-.255 2.505-.763.662-.508 1.151-1.185 1.468-2.03.324-.845.486-1.776.486-2.793 0-1.01-.162-1.937-.486-2.782-.317-.852-.806-1.535-1.468-2.05-.662-.516-1.497-.773-2.505-.773-1.014 0-1.856.257-2.526.773-.662.515-1.155 1.198-1.479 2.05-.316.845-.475 1.773-.475 2.782 0 1.017.159 1.948.475 2.793.324.845.817 1.522 1.479 2.03.67.509 1.512.763 2.526.763zm22.559-6.977v2.67h-8.981v-2.67h8.981zm-8.074-6.584v15.828h-3.163V16.73h3.163zm10.331 0v15.828h-3.153V16.73h3.153zm17.693 15.828l-7.427-9.46h-2.354v9.46h-3.335V11.455h3.335v8.913h1.091l8.355-8.913h4.07l-8.841 9.449 9.175 11.655h-4.069zm12.668.319c-1.555 0-2.911-.34-4.07-1.02-1.159-.68-2.058-1.632-2.699-2.854-.64-1.223-.961-2.652-.961-4.287 0-1.642.321-3.078.961-4.308.641-1.23 1.54-2.184 2.699-2.864 1.159-.68 2.515-1.02 4.07-1.02 1.554 0 2.911.34 4.069 1.02 1.159.68 2.059 1.635 2.699 2.864.641 1.23.961 2.666.961 4.308 0 1.635-.32 3.064-.961 4.287-.64 1.222-1.54 2.174-2.699 2.854-1.158.68-2.515 1.02-4.069 1.02zm.01-2.586c1.008 0 1.843-.255 2.505-.763.662-.508 1.151-1.185 1.468-2.03.324-.845.486-1.776.486-2.793 0-1.01-.162-1.937-.486-2.782-.317-.852-.806-1.535-1.468-2.05-.662-.516-1.497-.773-2.505-.773-1.014 0-1.856.257-2.526.773-.662.515-1.155 1.198-1.479 2.05-.316.845-.475 1.773-.475 2.782 0 1.017.159 1.948.475 2.793.324.845.817 1.522 1.479 2.03.67.509 1.512.763 2.526.763zm22.559-6.977v2.67h-8.981v-2.67h8.981zm-8.074-6.584v15.828h-3.163V16.73h3.163zm10.331 0v15.828h-3.153V16.73h3.153zm11.302 16.147c-1.605 0-2.987-.347-4.145-1.04a6.999 6.999 0 01-2.656-2.896c-.619-1.23-.928-2.638-.928-4.225 0-1.608.316-3.026.95-4.256.633-1.237 1.525-2.202 2.677-2.896 1.151-.694 2.508-1.04 4.07-1.04 1.259 0 2.382.223 3.368.67.986.439 1.781 1.057 2.385 1.854.612.797.976 1.728 1.091 2.793h-3.142c-.172-.742-.568-1.381-1.187-1.917-.612-.536-1.432-.804-2.461-.804-.9 0-1.688.227-2.364.68-.67.447-1.192 1.086-1.566 1.917-.374.825-.561 1.8-.561 2.927 0 1.154.183 2.15.55 2.988.367.838.886 1.487 1.555 1.948.676.46 1.472.69 2.386.69a4.16 4.16 0 001.662-.32c.504-.22.925-.532 1.263-.937.346-.405.587-.893.723-1.463h3.142a5.662 5.662 0 01-1.047 2.74c-.583.804-1.364 1.436-2.343 1.897-.971.46-2.112.69-3.422.69zm15.089.032c-1.051 0-2.001-.186-2.85-.557-.849-.378-1.522-.924-2.019-1.639-.489-.714-.734-1.59-.734-2.627 0-.894.18-1.629.54-2.206a3.908 3.908 0 011.457-1.37 7.841 7.841 0 012.051-.763 21.288 21.288 0 012.31-.391l2.419-.268c.619-.076 1.068-.196 1.349-.361.281-.165.421-.433.421-.804v-.072c0-.9-.266-1.597-.799-2.092-.525-.494-1.31-.742-2.353-.742-1.087 0-1.943.23-2.569.69-.619.454-1.048.959-1.285 1.516l-3.033-.66c.359-.962.885-1.738 1.576-2.329a6.474 6.474 0 012.407-1.298 9.81 9.81 0 012.861-.413c.662 0 1.363.076 2.105.227a6.338 6.338 0 012.094.804c.655.392 1.191.951 1.608 1.68.418.721.627 1.659.627 2.813v10.51h-3.153v-2.163h-.129c-.209.398-.522.79-.939 1.175-.418.384-.954.704-1.609.958s-1.439.381-2.353.381zm.702-2.474c.892 0 1.655-.168 2.288-.505.641-.337 1.126-.776 1.457-1.319a3.3 3.3 0 00.508-1.762v-2.04c-.115.11-.338.213-.67.309-.323.089-.694.168-1.111.237-.418.061-.824.12-1.22.175-.396.048-.727.09-.993.123a8.316 8.316 0 00-1.717.382c-.511.178-.921.436-1.23.773-.303.33-.454.77-.454 1.319 0 .762.295 1.34.885 1.73.59.386 1.343.578 2.257.578zm10.473 2.123l-.01-2.67h.593c.461 0 .846-.092 1.155-.277.317-.193.576-.516.778-.97.201-.453.356-1.078.464-1.875.108-.803.187-1.813.237-3.03l.292-7.006h11.572v15.828h-3.163v-13.17h-5.419l-.259 5.38c-.065 1.305-.205 2.445-.421 3.42-.209.976-.515 1.79-.918 2.443-.403.645-.921 1.13-1.554 1.453-.633.316-1.403.474-2.31.474h-1.037zm17.329-13.169v-2.66H269v2.66h-5.409v13.169h-3.152v-13.17h-5.43zM0 32.214h14.67v-7.34H7.765v-9.787l12.08-6.116 11.218 6.116V27.32l-11.218 5.71V42L38.4 32.214V10.602L19.846 0 0 10.602v21.612z" fill="#fff"/></svg>