<svg width="213" height="34" fill="none" xmlns="http://www.w3.org/2000/svg"><path d="M34.758 26.357V9.273h6.225c1.359 0 2.484.242 3.377.725.893.484 1.56 1.146 2.004 1.986.444.834.665 1.774.665 2.82 0 1.05-.224 1.996-.674 2.836-.443.834-1.114 1.496-2.012 1.985-.893.484-2.015.726-3.369.726h-4.28v-2.186h4.042c.858 0 1.555-.144 2.089-.434.534-.294.927-.695 1.177-1.2.25-.507.375-1.082.375-1.728 0-.645-.125-1.218-.375-1.718s-.645-.893-1.186-1.176c-.534-.284-1.239-.426-2.114-.426h-3.31v14.874h-2.634zm20.637.259c-1.29 0-2.402-.27-3.335-.81a5.536 5.536 0 01-2.149-2.294c-.5-.99-.75-2.149-.75-3.478 0-1.313.25-2.47.75-3.47.506-1.002 1.212-1.783 2.115-2.345.91-.561 1.973-.842 3.19-.842.739 0 1.455.12 2.149.359a5.217 5.217 0 011.867 1.126c.552.511.987 1.176 1.305 1.993.318.813.478 1.8.478 2.962v.884H50.602v-1.868h7.914c0-.657-.136-1.238-.41-1.744a3.056 3.056 0 00-1.15-1.21c-.49-.294-1.064-.442-1.723-.442-.716 0-1.342.173-1.876.518a3.5 3.5 0 00-1.228 1.334 3.785 3.785 0 00-.427 1.777v1.46c0 .856.154 1.585.46 2.186a3.29 3.29 0 001.306 1.376c.557.311 1.208.467 1.952.467a4.15 4.15 0 001.322-.2 2.866 2.866 0 001.032-.617c.29-.273.512-.61.665-1.01l2.414.426a4.25 4.25 0 01-1.04 1.827c-.495.517-1.118.92-1.868 1.21-.745.283-1.595.425-2.55.425zm16.823-13.072v2.152h-5.859v10.661h-2.515V13.544h8.374zm5.193 9.318l5.773-9.318h2.746v12.813h-2.498v-9.326l-5.748 9.326h-2.771V13.544h2.498v9.318zm17.465 3.754c-1.228 0-2.3-.276-3.215-.826-.915-.55-1.626-1.321-2.132-2.311-.506-.99-.759-2.147-.759-3.47 0-1.33.253-2.492.76-3.487.505-.996 1.216-1.769 2.131-2.32.915-.55 1.987-.825 3.215-.825 1.228 0 2.3.275 3.215.826.915.55 1.626 1.323 2.132 2.319.506.995.759 2.158.759 3.487 0 1.323-.253 2.48-.759 3.47-.506.99-1.217 1.76-2.132 2.31-.915.551-1.987.827-3.215.827zm.008-2.094c.796 0 1.456-.206 1.979-.617.523-.412.91-.96 1.16-1.644a6.427 6.427 0 00.383-2.26c0-.818-.128-1.569-.383-2.253-.25-.69-.637-1.243-1.16-1.66-.523-.417-1.183-.626-1.978-.626-.802 0-1.467.209-1.996.626-.523.417-.912.97-1.168 1.66A6.514 6.514 0 0091.345 20c0 .823.126 1.577.376 2.261.256.684.645 1.232 1.168 1.643.529.412 1.194.618 1.996.618zm17.821-5.648v2.16h-7.095v-2.16h7.095zm-6.378-5.33v12.813h-2.499V13.544h2.499zm8.161 0v12.813h-2.491V13.544h2.491zm13.976 12.813l-5.867-7.658h-1.859v7.658h-2.635V9.273h2.635v7.215h.862l6.6-7.215h3.215l-6.984 7.65 7.248 9.434h-3.215zm10.008.259c-1.228 0-2.3-.276-3.215-.826-.916-.55-1.626-1.321-2.132-2.311-.506-.99-.759-2.147-.759-3.47 0-1.33.253-2.492.759-3.487.506-.996 1.216-1.769 2.132-2.32.915-.55 1.987-.825 3.215-.825 1.228 0 2.299.275 3.215.826.915.55 1.626 1.323 2.132 2.319.506.995.759 2.158.759 3.487 0 1.323-.253 2.48-.759 3.47-.506.99-1.217 1.76-2.132 2.31-.916.551-1.987.827-3.215.827zm.008-2.094c.796 0 1.456-.206 1.979-.617.523-.412.909-.96 1.159-1.644.256-.684.384-1.438.384-2.26a6.38 6.38 0 00-.384-2.253c-.25-.69-.636-1.243-1.159-1.66-.523-.417-1.183-.626-1.979-.626-.801 0-1.467.209-1.995.626-.523.417-.913.97-1.169 1.66a6.517 6.517 0 00-.375 2.252c0 .823.125 1.577.375 2.261.256.684.646 1.232 1.169 1.643.528.412 1.194.618 1.995.618zm17.821-5.648v2.16h-7.095v-2.16h7.095zm-6.379-5.33v12.813h-2.498V13.544h2.498zm8.161 0v12.813h-2.49V13.544h2.49zm8.929 13.072c-1.268 0-2.36-.281-3.275-.843a5.623 5.623 0 01-2.098-2.344c-.489-.995-.733-2.136-.733-3.42 0-1.302.25-2.45.75-3.445.501-1.002 1.206-1.783 2.115-2.345.91-.561 1.982-.842 3.215-.842.995 0 1.882.18 2.661.542a4.745 4.745 0 011.884 1.502c.484.645.771 1.398.862 2.26h-2.482a2.893 2.893 0 00-.938-1.551c-.483-.434-1.131-.65-1.944-.65-.711 0-1.333.183-1.868.55-.528.361-.941.878-1.236 1.551-.296.668-.444 1.457-.444 2.37 0 .934.145 1.74.435 2.419.29.678.7 1.204 1.228 1.576.535.373 1.163.56 1.885.56a3.22 3.22 0 001.313-.26c.398-.177.731-.43.998-.759.273-.328.463-.723.571-1.184h2.482a4.658 4.658 0 01-.827 2.219c-.461.65-1.078 1.162-1.851 1.535-.767.372-1.669.559-2.703.559zm11.919.024c-.83 0-1.58-.15-2.251-.45a3.776 3.776 0 01-1.595-1.326c-.386-.579-.579-1.288-.579-2.127 0-.723.142-1.318.426-1.786a3.114 3.114 0 011.151-1.11 6.09 6.09 0 011.62-.616 16.473 16.473 0 011.825-.317l1.911-.217c.488-.061.844-.159 1.066-.292.221-.134.332-.35.332-.65v-.06c0-.728-.21-1.292-.631-1.693-.415-.4-1.035-.6-1.859-.6-.858 0-1.535.186-2.03.559-.489.367-.827.775-1.014 1.226l-2.397-.534c.285-.779.7-1.407 1.245-1.885a5.089 5.089 0 011.902-1.051 7.579 7.579 0 012.26-.334 8.17 8.17 0 011.663.183 4.925 4.925 0 011.654.651c.518.317.941.77 1.271 1.36.33.584.494 1.343.494 2.277v8.509h-2.49v-1.752h-.102c-.165.323-.412.64-.742.951-.33.312-.753.57-1.271.776-.517.206-1.137.309-1.859.309zm.555-2.001c.705 0 1.307-.137 1.808-.41.506-.272.889-.628 1.151-1.067.267-.445.401-.92.401-1.426v-1.652c-.091.089-.268.172-.529.25a8.418 8.418 0 01-.878.192c-.33.05-.651.097-.964.142-.313.039-.574.072-.785.1a6.46 6.46 0 00-1.356.309 2.338 2.338 0 00-.972.625c-.238.267-.358.623-.358 1.068 0 .617.233 1.084.699 1.401.467.312 1.061.468 1.783.468zm8.274 1.718l-.009-2.16h.469c.364 0 .668-.076.913-.226.25-.155.454-.417.614-.784.159-.367.281-.873.366-1.518.086-.65.148-1.468.188-2.453l.23-5.672h9.142v12.813h-2.499V15.696h-4.281l-.204 4.354c-.051 1.057-.162 1.98-.333 2.77-.165.79-.406 1.449-.725 1.977a3.115 3.115 0 01-1.228 1.176c-.5.256-1.108.384-1.825.384h-.818zm13.689-10.661v-2.152h11.052v2.152h-4.273v10.661h-2.49V15.696h-4.289z" fill="#000"/><path d="M0 26.078h11.588v-5.942H6.135v-7.922l9.543-4.952 8.861 4.952v9.902l-8.861 4.622V34l14.655-7.922V8.583L15.679 0 0 8.583v17.495z" fill="#186FD5"/></svg>