<svg width="22" height="22" fill="none" xmlns="http://www.w3.org/2000/svg"><path d="M11 6c-2.76 0-5 2.24-5 5s2.24 5 5 5 5-2.24 5-5-2.24-5-5-5zM1 12h2c.55 0 1-.45 1-1s-.45-1-1-1H1c-.55 0-1 .45-1 1s.45 1 1 1zm18 0h2c.55 0 1-.45 1-1s-.45-1-1-1h-2c-.55 0-1 .45-1 1s.45 1 1 1zM10 1v2c0 .55.45 1 1 1s1-.45 1-1V1c0-.55-.45-1-1-1s-1 .45-1 1zm0 18v2c0 .55.45 1 1 1s1-.45 1-1v-2c0-.55-.45-1-1-1s-1 .45-1 1zM4.99 3.58a.996.996 0 00-1.41 0 .996.996 0 000 1.41l1.06 1.06c.39.39 1.03.39 1.41 0 .38-.39.39-1.03 0-1.41L4.99 3.58zm12.37 12.37a.996.996 0 00-1.41 0 .996.996 0 000 1.41l1.06 1.06c.39.39 1.03.39 1.41 0a.996.996 0 000-1.41l-1.06-1.06zm1.06-10.96a.996.996 0 000-1.41.996.996 0 00-1.41 0l-1.06 1.06a.996.996 0 000 1.41c.39.38 1.03.39 1.41 0l1.06-1.06zM6.05 17.36a.996.996 0 000-1.41.996.996 0 00-1.41 0l-1.06 1.06a.996.996 0 000 1.41c.39.38 1.03.39 1.41 0l1.06-1.06z" fill="#fff"/></svg>