<svg width="145" height="150" viewBox="0 0 145 150" fill="none" xmlns="http://www.w3.org/2000/svg">
<path fill-rule="evenodd" clip-rule="evenodd" d="M52.1753 4.43461C52.4875 3.97906 53.1099 3.86289 53.5655 4.17513L67.5655 13.7711L67.801 15.1947L57.7784 28.5988C57.4477 29.0411 56.821 29.1316 56.3787 28.8008C55.9364 28.4701 55.8459 27.8434 56.1767 27.4011L65.5752 14.8316L52.4347 5.82481C51.9792 5.51257 51.863 4.89015 52.1753 4.43461Z" fill="#186FD5"/>
<path fill-rule="evenodd" clip-rule="evenodd" d="M72.0977 13.9115L73.0934 14.0043C84.3499 15.0531 95.1446 19.0431 104.424 25.5832L104.426 25.585C107.59 27.8293 122.834 39.0805 129.226 60.3143L129.226 60.315C131.101 66.5596 132.036 73.055 132 79.5821C131.908 96.9158 125.035 109.724 121.404 115.53L120.874 116.378L119.178 115.318L119.709 114.47C123.243 108.817 129.911 96.3807 130 79.5712V79.5709C130.035 73.2424 129.128 66.9449 127.311 60.8908C121.114 40.3031 106.317 29.3786 103.27 27.217C94.2756 20.8778 83.8143 17.0119 72.9078 15.9956L71.9121 15.9029L72.0977 13.9115Z" fill="#186FD5"/>
<path fill-rule="evenodd" clip-rule="evenodd" d="M113.627 98.0723C114.139 97.8661 114.722 98.1144 114.928 98.6267L120.59 112.698L134.625 107.023C135.137 106.816 135.72 107.064 135.927 107.576C136.134 108.088 135.887 108.67 135.375 108.877L120.41 114.927L119.108 114.373L113.073 99.3733C112.866 98.8609 113.115 98.2785 113.627 98.0723Z" fill="#186FD5"/>
<path fill-rule="evenodd" clip-rule="evenodd" d="M11.2429 112.607L11.8185 113.424C16.016 119.388 25.1033 130.439 40.7158 137.343L40.7192 137.344C47.0047 140.151 53.7046 141.958 60.5679 142.696C79.59 144.582 93.9604 137.188 98.6507 134.513C105.836 130.392 112.139 124.942 117.214 118.465L117.83 117.678L119.405 118.911L118.788 119.698C113.553 126.38 107.052 132 99.6448 136.248L99.6428 136.25C94.8082 139.008 79.997 146.633 60.3664 144.686L60.3582 144.685L60.3582 144.685C53.2868 143.925 46.383 142.064 39.9053 139.171C23.8321 132.064 14.4889 120.693 10.183 114.576L9.60742 113.758L11.2429 112.607Z" fill="#186FD5"/>
<path fill-rule="evenodd" clip-rule="evenodd" d="M68.0081 15.9919L67.0082 16C60.3448 16.0543 46.1185 17.1344 31.9774 26.3681L31.9739 26.3703C29.7548 27.8063 5.92272 43.9637 3.24227 74.1479L3.24226 74.148C1.81268 90.2287 7.05606 102.765 9.9503 108.553L10.3976 109.447L8.60874 110.342L8.16149 109.447C5.18641 103.498 -0.225781 90.5726 1.25011 73.971C4.01684 42.8151 28.5563 26.1999 30.8859 24.6922C45.4811 15.1627 60.1464 14.0558 66.9919 14.0001L67.9919 13.9919L68.0081 15.9919Z" fill="#186FD5"/>
<path fill-rule="evenodd" clip-rule="evenodd" d="M53.2035 4.3955C53.5374 3.95557 54.1647 3.86961 54.6046 4.20349L67.6046 14.07L67.8024 15.4634L58.033 28.5969C57.7033 29.04 57.0769 29.132 56.6338 28.8024C56.1906 28.4728 56.0986 27.8463 56.4282 27.4032L65.6066 15.0644L53.3955 5.79661C52.9556 5.46273 52.8696 4.83542 53.2035 4.3955Z" fill="#186FD5"/>
<path fill-rule="evenodd" clip-rule="evenodd" d="M10.0263 112.94L11.0849 112.002L28.0604 113.028C28.6116 113.061 29.0315 113.535 28.9982 114.086C28.9649 114.638 28.491 115.057 27.9397 115.024L11.9626 114.059L10.9982 130.06C10.965 130.611 10.4912 131.031 9.93988 130.998C9.38859 130.965 8.96862 130.491 9.00184 129.94L10.0263 112.94Z" fill="#186FD5"/>
<path fill-rule="evenodd" clip-rule="evenodd" d="M67.8985 35.8406L104 57.7167V102.641L66.784 123.709L66.6462 103.165L67.1748 102.88C74.12 99.1272 81.0632 95.3716 88.0044 91.6129V68.3436L67.8781 56.7503L46.3391 68.4798V86.3536L58.7456 86.4738L58.8115 103.237L29 103.304V57.9416L67.8985 35.8406ZM31 59.1055V101.299L56.8036 101.242L56.7534 88.4546L44.3391 88.3343V67.2916L67.9055 54.458L90.0044 67.1876V92.8042L89.4806 93.0879C82.5405 96.8462 75.5984 100.601 68.6542 104.354L68.7611 120.291L102 101.475V58.8433L67.8659 38.1594L31 59.1055Z" fill="#186FD5"/>
</svg>
