<svg width="131" height="150" viewBox="0 0 131 150" fill="none" xmlns="http://www.w3.org/2000/svg">
<g clip-path="url(#clip0_405_796)">
<path fill-rule="evenodd" clip-rule="evenodd" d="M64.2168 2.67899V0.628784H66.2168V2.67899H64.2168Z" fill="#186FD5"/>
<path fill-rule="evenodd" clip-rule="evenodd" d="M64.2168 11.9978V6.74524H66.2168V11.9978H64.2168ZM64.2168 33.0078V22.5028H66.2168V33.0078H64.2168ZM64.2168 54.0179V43.5128H66.2168V54.0179H64.2168ZM64.2168 69.7754V64.5229H66.2168V69.7754H64.2168Z" fill="#186FD5"/>
<path fill-rule="evenodd" clip-rule="evenodd" d="M64.2168 73.8587V71.8085H66.2168V73.8587H64.2168Z" fill="#186FD5"/>
<path fill-rule="evenodd" clip-rule="evenodd" d="M61.8789 75.9743L63.6542 74.9561L64.6493 76.6909L62.874 77.7092L61.8789 75.9743Z" fill="#186FD5"/>
<path fill-rule="evenodd" clip-rule="evenodd" d="M59.3539 79.7284L54.8085 82.3387L53.8125 80.6043L58.358 77.994L59.3539 79.7284ZM45.7176 87.5593L36.6267 92.7799L35.6307 91.0456L44.7216 85.825L45.7176 87.5593ZM27.5358 98.0006L18.4449 103.221L17.4489 101.487L26.5398 96.2662L27.5358 98.0006ZM9.35394 108.442L4.80849 111.052L3.8125 109.318L8.35795 106.707L9.35394 108.442Z" fill="#186FD5"/>
<path fill-rule="evenodd" clip-rule="evenodd" d="M0.279297 111.347L2.05455 110.329L3.04965 112.064L1.2744 113.082L0.279297 111.347Z" fill="#186FD5"/>
<path fill-rule="evenodd" clip-rule="evenodd" d="M67.5174 77.3504L65.7422 76.3322L66.7373 74.5973L68.5125 75.6156L67.5174 77.3504Z" fill="#186FD5"/>
<path fill-rule="evenodd" clip-rule="evenodd" d="M75.5826 81.9833L71.0371 79.373L72.0331 77.6387L76.5786 80.249L75.5826 81.9833ZM93.7644 92.4246L84.6735 87.204L85.6695 85.4696L94.7604 90.6902L93.7644 92.4246ZM111.946 102.866L102.855 97.6452L103.851 95.9109L112.942 101.131L111.946 102.866ZM125.583 110.697L121.037 108.086L122.033 106.352L126.579 108.962L125.583 110.697Z" fill="#186FD5"/>
<path fill-rule="evenodd" clip-rule="evenodd" d="M129.115 112.726L127.34 111.704L128.337 109.971L130.113 110.993L129.115 112.726Z" fill="#186FD5"/>
<path fill-rule="evenodd" clip-rule="evenodd" d="M130.613 35.9928V112.405L64.2168 150.846V74.4337L130.613 35.9928ZM66.2168 75.5868V147.377L128.613 111.252V39.4617L66.2168 75.5868Z" fill="#186FD5"/>
<path fill-rule="evenodd" clip-rule="evenodd" d="M-0.195342 36.0857L66.091 74.4647L66.0383 150.845L-0.248047 112.466L-0.195342 36.0857ZM1.80227 39.5533L1.75275 111.314L64.0407 147.378L64.0902 75.6173L1.80227 39.5533Z" fill="#186FD5"/>
<path fill-rule="evenodd" clip-rule="evenodd" d="M65.4193 -0.564331L131.409 37.6418L65.0172 76.0838L-0.972656 37.8742L65.4193 -0.564331ZM3.01884 37.8742L65.0172 73.7728L127.418 37.6419L65.4193 1.74669L3.01884 37.8742Z" fill="#186FD5"/>
</g>
<defs>
<clipPath id="clip0_405_796">
<rect width="130.435" height="150" fill="white"/>
</clipPath>
</defs>
</svg>
