<svg width="42" height="48" viewBox="0 0 42 48" fill="none" xmlns="http://www.w3.org/2000/svg">
<rect x="0.6" y="0.6" width="40.8" height="46.8" stroke="white" stroke-width="1.2"/>
<line x1="6" y1="29.7" x2="36" y2="29.7" stroke="white" stroke-width="0.6"/>
<line x1="6" y1="35.7" x2="36" y2="35.7" stroke="white" stroke-width="0.6"/>
<line x1="6" y1="41.7" x2="27.6" y2="41.7" stroke="white" stroke-width="0.6"/>
<path d="M6 21V9H10.1195C11.0759 9 11.8577 9.16992 12.4649 9.50977C13.0761 9.8457 13.5285 10.3008 13.8222 10.875C14.1159 11.4492 14.2627 12.0898 14.2627 12.7969C14.2627 13.5039 14.1159 14.1465 13.8222 14.7246C13.5325 15.3027 13.084 15.7637 12.4768 16.1074C11.8696 16.4473 11.0918 16.6172 10.1433 16.6172H7.19059V15.3281H10.0956C10.7505 15.3281 11.2763 15.2168 11.6732 14.9941C12.07 14.7715 12.3578 14.4707 12.5364 14.0918C12.7189 13.709 12.8102 13.2773 12.8102 12.7969C12.8102 12.3164 12.7189 11.8867 12.5364 11.5078C12.3578 11.1289 12.0681 10.832 11.6672 10.6172C11.2664 10.3984 10.7346 10.2891 10.0718 10.2891H7.47634V21H6Z" fill="white"/>
<path d="M20.4032 21H16.6409V9H20.5699C21.7526 9 22.7646 9.24023 23.6059 9.7207C24.4473 10.1973 25.0922 10.8828 25.5406 11.7773C25.9891 12.668 26.2133 13.7344 26.2133 14.9766C26.2133 16.2266 25.9871 17.3027 25.5347 18.2051C25.0823 19.1035 24.4235 19.7949 23.5583 20.2793C22.6931 20.7598 21.6414 21 20.4032 21ZM18.1173 19.7109H20.308C21.316 19.7109 22.1514 19.5195 22.8142 19.1367C23.4769 18.7539 23.971 18.209 24.2965 17.502C24.6219 16.7949 24.7846 15.9531 24.7846 14.9766C24.7846 14.0078 24.6239 13.1738 24.3024 12.4746C23.981 11.7715 23.5007 11.2324 22.8618 10.8574C22.2228 10.4785 21.4271 10.2891 20.4747 10.2891H18.1173V19.7109Z" fill="white"/>
<path d="M28.6898 21V9H36V10.2891H30.1661V14.3437H35.4523V15.6328H30.1661V21H28.6898Z" fill="white"/>
</svg>
