<svg width="148" height="150" viewBox="0 0 148 150" fill="none" xmlns="http://www.w3.org/2000/svg">
<g clip-path="url(#clip0_405_831)">
<path fill-rule="evenodd" clip-rule="evenodd" d="M8.70237 66.4814C4.71978 66.4814 1.49219 69.7081 1.49219 73.6871C1.49219 77.6662 4.71978 80.8928 8.70237 80.8928C12.685 80.8928 15.9125 77.6662 15.9125 73.6871C15.9125 69.7081 12.685 66.4814 8.70237 66.4814ZM-0.507812 73.6871C-0.507812 68.6025 3.61624 64.4814 8.70237 64.4814C13.7885 64.4814 17.9125 68.6025 17.9125 73.6871C17.9125 78.7718 13.7885 82.8928 8.70237 82.8928C3.61624 82.8928 -0.507812 78.7718 -0.507812 73.6871Z" fill="#186FD5"/>
<path fill-rule="evenodd" clip-rule="evenodd" d="M28.4074 115.387C24.4249 115.387 21.1973 118.614 21.1973 122.593C21.1973 126.572 24.4249 129.799 28.4074 129.799C32.39 129.799 35.6176 126.572 35.6176 122.593C35.6176 118.614 32.39 115.387 28.4074 115.387ZM19.1973 122.593C19.1973 117.508 23.3213 113.387 28.4074 113.387C33.4936 113.387 37.6176 117.508 37.6176 122.593C37.6176 127.678 33.4936 131.799 28.4074 131.799C23.3213 131.799 19.1973 127.678 19.1973 122.593Z" fill="#186FD5"/>
<path fill-rule="evenodd" clip-rule="evenodd" d="M76.3547 134.096C72.3721 134.096 69.1445 137.323 69.1445 141.302C69.1445 145.281 72.3721 148.508 76.3547 148.508C80.3373 148.508 83.5649 145.281 83.5649 141.302C83.5649 137.323 80.3373 134.096 76.3547 134.096ZM67.1445 141.302C67.1445 136.217 71.2686 132.096 76.3547 132.096C81.4408 132.096 85.5649 136.217 85.5649 141.302C85.5649 146.387 81.4408 150.508 76.3547 150.508C71.2686 150.508 67.1445 146.387 67.1445 141.302Z" fill="#186FD5"/>
<path fill-rule="evenodd" clip-rule="evenodd" d="M122.667 112.21C118.685 112.21 115.457 115.437 115.457 119.416C115.457 123.395 118.685 126.621 122.667 126.621C126.65 126.621 129.877 123.395 129.877 119.416C129.877 115.437 126.65 112.21 122.667 112.21ZM113.457 119.416C113.457 114.331 117.581 110.21 122.667 110.21C127.753 110.21 131.877 114.331 131.877 119.416C131.877 124.5 127.753 128.621 122.667 128.621C117.581 128.621 113.457 124.5 113.457 119.416Z" fill="#186FD5"/>
<path fill-rule="evenodd" clip-rule="evenodd" d="M139.081 67.7943C135.099 67.7943 131.871 71.0209 131.871 75C131.871 78.9791 135.099 82.2057 139.081 82.2057C143.064 82.2057 146.291 78.9791 146.291 75C146.291 71.0209 143.064 67.7943 139.081 67.7943ZM129.871 75C129.871 69.9153 133.995 65.7943 139.081 65.7943C144.167 65.7943 148.291 69.9153 148.291 75C148.291 80.0847 144.167 84.2057 139.081 84.2057C133.995 84.2057 129.871 80.0847 129.871 75Z" fill="#186FD5"/>
<path fill-rule="evenodd" clip-rule="evenodd" d="M120.689 20.5295C116.706 20.5295 113.479 23.7562 113.479 27.7352C113.479 31.7143 116.706 34.9409 120.689 34.9409C124.671 34.9409 127.899 31.7143 127.899 27.7352C127.899 23.7562 124.671 20.5295 120.689 20.5295ZM111.479 27.7352C111.479 22.6506 115.603 18.5295 120.689 18.5295C125.775 18.5295 129.899 22.6506 129.899 27.7352C129.899 32.8199 125.775 36.9409 120.689 36.9409C115.603 36.9409 111.479 32.8199 111.479 27.7352Z" fill="#186FD5"/>
<path fill-rule="evenodd" clip-rule="evenodd" d="M74.7121 1.49231C70.7295 1.49231 67.502 4.71892 67.502 8.698C67.502 12.6771 70.7295 15.9037 74.7121 15.9037C78.6947 15.9037 81.9223 12.6771 81.9223 8.698C81.9223 4.71892 78.6947 1.49231 74.7121 1.49231ZM65.502 8.698C65.502 3.61332 69.626 -0.50769 74.7121 -0.50769C79.7983 -0.50769 83.9223 3.61332 83.9223 8.698C83.9223 13.7827 79.7983 17.9037 74.7121 17.9037C69.626 17.9037 65.502 13.7827 65.502 8.698Z" fill="#186FD5"/>
<path fill-rule="evenodd" clip-rule="evenodd" d="M22.4551 27.7527C22.4581 28.898 22.7333 30.0262 23.2582 31.0444C23.7836 32.0635 24.5439 32.9431 25.4764 33.6106C26.7088 34.4667 28.1699 34.9336 29.6707 34.9508C31.5812 34.9494 33.413 34.1902 34.7639 32.8401C36.116 31.4887 36.8755 29.656 36.8755 27.7451C36.8755 25.8342 36.116 24.0015 34.7639 22.6501C33.4117 21.2987 31.5777 20.5394 29.6653 20.5394C25.4891 20.5394 22.5181 24.2336 22.4551 27.7527ZM20.4552 27.7286C20.5285 23.2876 24.2292 18.5394 29.6653 18.5394C32.1078 18.5394 34.4504 19.5092 36.1777 21.2355C37.905 22.9619 38.8755 25.3035 38.8755 27.7451C38.8755 30.1868 37.905 32.5283 36.1777 34.2547C34.4504 35.981 32.1078 36.9508 29.6653 36.9508H29.6545V36.9508C27.7487 36.9303 25.8931 36.3372 24.3289 35.2486L24.3187 35.2415L24.3187 35.2415C23.1254 34.3888 22.1525 33.2643 21.4805 31.9609C20.8086 30.6575 20.4571 29.2128 20.4551 27.7465L20.4551 27.7376L20.4552 27.7286Z" fill="#186FD5"/>
<path fill-rule="evenodd" clip-rule="evenodd" d="M48.6496 59.3391C44.667 59.3391 41.4395 62.5657 41.4395 66.5448C41.4395 70.5239 44.667 73.7505 48.6496 73.7505C52.6322 73.7505 55.8598 70.5239 55.8598 66.5448C55.8598 62.5657 52.6322 59.3391 48.6496 59.3391ZM39.4395 66.5448C39.4395 61.4601 43.5635 57.3391 48.6496 57.3391C53.7358 57.3391 57.8598 61.4601 57.8598 66.5448C57.8598 71.6295 53.7358 75.7505 48.6496 75.7505C43.5635 75.7505 39.4395 71.6295 39.4395 66.5448Z" fill="#186FD5"/>
<path fill-rule="evenodd" clip-rule="evenodd" d="M91.132 50.3982C87.1495 50.3982 83.9219 53.6248 83.9219 57.6039C83.9219 61.583 87.1495 64.8096 91.132 64.8096C95.1146 64.8096 98.3422 61.583 98.3422 57.6039C98.3422 53.6248 95.1146 50.3982 91.132 50.3982ZM81.9219 57.6039C81.9219 52.5192 86.0459 48.3982 91.132 48.3982C96.2182 48.3982 100.342 52.5192 100.342 57.6039C100.342 62.6886 96.2182 66.8096 91.132 66.8096C86.0459 66.8096 81.9219 62.6886 81.9219 57.6039Z" fill="#186FD5"/>
<path fill-rule="evenodd" clip-rule="evenodd" d="M76.3547 92.7396C72.3721 92.7396 69.1445 95.9662 69.1445 99.9453C69.1445 103.924 72.3721 107.151 76.3547 107.151C80.3373 107.151 83.5649 103.924 83.5649 99.9453C83.5649 95.9662 80.3373 92.7396 76.3547 92.7396ZM67.1445 99.9453C67.1445 94.8606 71.2686 90.7396 76.3547 90.7396C81.4408 90.7396 85.5649 94.8606 85.5649 99.9453C85.5649 105.03 81.4408 109.151 76.3547 109.151C71.2686 109.151 67.1445 105.03 67.1445 99.9453Z" fill="#186FD5"/>
<path fill-rule="evenodd" clip-rule="evenodd" d="M11.3342 81.7407C13.2392 94.128 18.8853 107.846 23.6917 116.186L21.9589 117.184C17.0575 108.679 11.3079 94.7275 9.35742 82.0447L11.3342 81.7407Z" fill="#186FD5"/>
<path fill-rule="evenodd" clip-rule="evenodd" d="M49.2047 135.501C55.1815 138.325 61.8717 140.739 68.231 141.29L68.0582 143.283C61.3567 142.702 54.4181 140.176 48.3505 137.31C42.3134 134.458 37.071 131.235 33.7079 129.168C33.6854 129.154 33.663 129.14 33.6406 129.127L34.688 127.423C34.7046 127.433 34.7213 127.443 34.738 127.453C38.1016 129.521 43.2674 132.697 49.2047 135.501Z" fill="#186FD5"/>
<path fill-rule="evenodd" clip-rule="evenodd" d="M103.506 135.997C109.825 133.236 115.501 129.778 119.019 126.461L120.391 127.916C116.645 131.448 110.744 135.017 104.307 137.83C97.8633 140.646 90.7862 142.747 84.6526 143.283L84.4785 141.29C90.3318 140.779 97.1922 138.756 103.506 135.997Z" fill="#186FD5"/>
<path fill-rule="evenodd" clip-rule="evenodd" d="M138.327 99.2098C140.681 93.0464 142.192 86.7945 142.351 82.1865L144.35 82.2555C144.18 87.1661 142.592 93.6478 140.195 99.9234C137.797 106.202 134.547 112.384 130.983 116.668L129.445 115.389C132.82 111.333 135.974 105.37 138.327 99.2098Z" fill="#186FD5"/>
<path fill-rule="evenodd" clip-rule="evenodd" d="M136.982 50.2905C134.208 43.902 130.587 37.5932 126.811 32.9624L128.361 31.6985C132.282 36.5076 135.991 42.9865 138.816 49.494C141.638 55.9917 143.618 62.6089 144.018 67.7008L142.024 67.8573C141.648 63.0761 139.76 56.689 136.982 50.2905Z" fill="#186FD5"/>
<path fill-rule="evenodd" clip-rule="evenodd" d="M114.893 22.3398C113.248 21.2811 97.9923 11.6019 82.8184 10.0208L83.0256 8.03162C98.7219 9.66714 114.336 19.6029 115.976 20.658L114.893 22.3398Z" fill="#186FD5"/>
<path fill-rule="evenodd" clip-rule="evenodd" d="M66.8149 10.814C52.3615 13.7277 39.0414 22.2382 36.8277 23.6542L35.75 21.9694L35.755 21.9662C37.9903 20.5364 51.5771 11.8455 66.4196 8.85339L66.8149 10.814Z" fill="#186FD5"/>
<path fill-rule="evenodd" clip-rule="evenodd" d="M24.937 34.5739C24.3448 35.3587 13.8283 49.5453 11.3338 65.6346L9.35742 65.3282C11.9335 48.7129 22.7241 34.1862 23.3404 33.3693L24.937 34.5739Z" fill="#186FD5"/>
<path fill-rule="evenodd" clip-rule="evenodd" d="M115.508 32.7099L100.439 55.3018L131.37 73.1492L131.186 74.9641L77.9841 92.6884L77.0175 92.4991L53.2695 72.1548L54.5707 70.636L77.8889 90.6121L128.443 73.7697L98.5148 56.5008L98.1826 55.0797L113.844 31.6001L115.508 32.7099Z" fill="#186FD5"/>
<path fill-rule="evenodd" clip-rule="evenodd" d="M75.263 15.601L89.104 49.6784L87.8345 50.9941L38.3796 32.9339L45.0574 59.3127L43.1185 59.8035L35.9766 31.5912L37.289 30.4064L86.4025 48.3419L73.41 16.3536L75.263 15.601Z" fill="#186FD5"/>
<path fill-rule="evenodd" clip-rule="evenodd" d="M80.2821 106.449L81.4903 105.532L117.608 113.291L117.187 115.247L82.2081 107.732C81.6822 116.426 81.1583 125.119 80.6364 133.813L80.5765 134.811L78.5801 134.691L78.64 133.693C79.1852 124.612 79.7325 115.531 80.2821 106.449Z" fill="#186FD5"/>
<path fill-rule="evenodd" clip-rule="evenodd" d="M41.5172 69.7334L42.5342 70.8687C40.5285 85.5192 38.5247 100.17 36.523 114.82L69.3784 102.265L70.0924 104.133L35.6607 117.291L34.313 116.221C36.3376 101.402 38.3643 86.5829 40.3931 71.7637L15.6112 72.4155L15.5586 70.4161L41.5172 69.7334Z" fill="#186FD5"/>
<path fill-rule="evenodd" clip-rule="evenodd" d="M84.0955 58.3941L55.2031 64.0285L54.8203 62.0655L83.7127 56.431L84.0955 58.3941Z" fill="#186FD5"/>
</g>
<defs>
<clipPath id="clip0_405_831">
<rect width="147.783" height="150" fill="white"/>
</clipPath>
</defs>
</svg>
