<svg width="163" height="150" viewBox="0 0 163 150" fill="none" xmlns="http://www.w3.org/2000/svg">
<g clip-path="url(#clip0_405_812)">
<path fill-rule="evenodd" clip-rule="evenodd" d="M33.0263 85.3993C15.6521 85.3993 1.56445 99.5092 1.56445 116.918C1.56445 134.328 15.6521 148.437 33.0263 148.437C50.4005 148.437 64.4881 134.328 64.4881 116.918C64.4881 99.5092 50.4005 85.3993 33.0263 85.3993ZM-0.435547 116.918C-0.435547 98.408 14.5442 83.3993 33.0263 83.3993C51.5084 83.3993 66.4881 98.408 66.4881 116.918C66.4881 135.429 51.5084 150.437 33.0263 150.437C14.5442 150.437 -0.435547 135.429 -0.435547 116.918Z" fill="#186FD5"/>
<path fill-rule="evenodd" clip-rule="evenodd" d="M43.1837 112.112C43.087 107.03 38.8688 101.91 33.0243 101.914C27.1898 101.917 23.0128 107.095 22.8673 112.122L22.8673 112.122C22.724 117.008 26.5069 120.26 27.0683 120.723C27.4943 121.074 27.5547 121.705 27.2033 122.131C26.8518 122.557 26.2215 122.617 25.7955 122.266C25.2036 121.777 20.695 117.976 20.8681 112.064C20.8681 112.064 20.8681 112.064 20.8681 112.064M20.8681 112.064C21.0394 106.15 25.9229 99.9178 33.0232 99.9137C40.1137 99.9096 45.069 106.064 45.1834 112.074L45.1834 112.075C45.2949 118.092 40.533 121.854 39.9815 122.283C39.5458 122.623 38.9175 122.545 38.5781 122.109C38.2386 121.673 38.3166 121.045 38.7523 120.706C39.2862 120.29 43.2754 117.074 43.1837 112.112" fill="#186FD5"/>
<path fill-rule="evenodd" clip-rule="evenodd" d="M27.3234 121.04C27.5742 121.532 27.3786 122.135 26.8865 122.385C23.9531 123.88 21.266 125.818 18.9191 128.129C15.4446 131.575 12.7878 135.759 11.1455 140.372C10.9602 140.892 10.3883 141.164 9.868 140.978C9.34771 140.793 9.07609 140.221 9.26132 139.701C11.0043 134.805 13.8241 130.365 17.5121 126.708L17.5143 126.706L17.5143 126.706C20.0073 124.25 22.8619 122.192 25.9783 120.603C26.4704 120.353 27.0726 120.548 27.3234 121.04Z" fill="#186FD5"/>
<path fill-rule="evenodd" clip-rule="evenodd" d="M38.4683 121.015C38.71 120.519 39.3085 120.312 39.8051 120.554C43.0254 122.121 45.9739 124.196 48.5384 126.699L48.5402 126.701C52.2526 130.342 55.0777 134.791 56.7966 139.702C56.979 140.223 56.7044 140.794 56.1831 140.976C55.6618 141.159 55.0913 140.884 54.9089 140.363C53.2914 135.741 50.6332 131.555 47.1406 128.129C44.7293 125.776 41.9572 123.826 38.9297 122.352C38.4331 122.11 38.2266 121.512 38.4683 121.015Z" fill="#186FD5"/>
<path fill-rule="evenodd" clip-rule="evenodd" d="M129.14 85.3993C111.765 85.3993 97.6777 99.5092 97.6777 116.918C97.6777 134.328 111.765 148.437 129.14 148.437C146.514 148.437 160.601 134.328 160.601 116.918C160.601 99.5092 146.514 85.3993 129.14 85.3993ZM95.6777 116.918C95.6777 98.408 110.657 83.3993 129.14 83.3993C147.622 83.3993 162.601 98.408 162.601 116.918C162.601 135.429 147.622 150.437 129.14 150.437C110.657 150.437 95.6777 135.429 95.6777 116.918Z" fill="#186FD5"/>
<path fill-rule="evenodd" clip-rule="evenodd" d="M129.138 99.9137L129.139 99.9137C136.165 99.9137 141.18 106.06 141.295 112.074M129.139 101.914C134.927 101.914 139.198 107.033 139.295 112.112ZM129.139 101.914C123.301 101.917 119.124 107.095 118.979 112.122L118.979 112.122C118.835 117.008 122.618 120.26 123.18 120.723C123.606 121.074 123.666 121.705 123.315 122.131C122.963 122.557 122.333 122.617 121.907 122.266C121.315 121.777 116.806 117.976 116.979 112.064C116.979 112.064 116.979 112.064 116.979 112.064M129.138 99.9137C122.034 99.9178 117.151 106.149 116.979 112.064ZM134.864 120.706C135.398 120.289 139.39 117.073 139.295 112.112L139.295 112.112M141.295 112.074C141.41 118.093 136.644 121.854 136.093 122.283C135.657 122.623 135.029 122.545 134.689 122.109C134.35 121.673 134.428 121.045 134.864 120.706" fill="#186FD5"/>
<path fill-rule="evenodd" clip-rule="evenodd" d="M123.435 121.04C123.686 121.532 123.49 122.135 122.998 122.385C120.065 123.88 117.379 125.817 115.034 128.129C111.558 131.574 108.899 135.758 107.257 140.372C107.072 140.892 106.5 141.164 105.979 140.978C105.459 140.793 105.187 140.221 105.373 139.701C107.116 134.804 109.937 130.363 113.628 126.708L113.629 126.706C116.12 124.25 118.974 122.191 122.09 120.603C122.582 120.353 123.184 120.548 123.435 121.04Z" fill="#186FD5"/>
<path fill-rule="evenodd" clip-rule="evenodd" d="M134.579 121.015C134.821 120.519 135.42 120.312 135.916 120.554C139.137 122.12 142.086 124.195 144.65 126.699L144.652 126.701C148.363 130.343 151.189 134.791 152.911 139.702C153.094 140.223 152.82 140.793 152.299 140.976C151.778 141.159 151.207 140.885 151.024 140.363C149.403 135.742 146.744 131.557 143.252 128.129C140.841 125.775 138.069 123.825 135.041 122.352C134.545 122.111 134.338 121.512 134.579 121.015Z" fill="#186FD5"/>
<path fill-rule="evenodd" clip-rule="evenodd" d="M80.1962 1.56628C62.822 1.56628 48.7344 15.6762 48.7344 33.0853C48.7344 50.4945 62.822 64.6044 80.1962 64.6044C97.5704 64.6044 111.658 50.4945 111.658 33.0853C111.658 15.6762 97.5704 1.56628 80.1962 1.56628ZM46.7344 33.0853C46.7344 14.5749 61.7141 -0.433716 80.1962 -0.433716C98.6783 -0.433716 113.658 14.5749 113.658 33.0853C113.658 51.5958 98.6783 66.6044 80.1962 66.6044C61.7141 66.6044 46.7344 51.5958 46.7344 33.0853Z" fill="#186FD5"/>
<path fill-rule="evenodd" clip-rule="evenodd" d="M80.1955 18.0769C74.358 18.0769 70.1807 23.2576 70.0353 28.2853L70.0353 28.2857C69.892 33.1716 73.6757 36.4236 74.2332 36.8799C74.6606 37.2297 74.7235 37.8598 74.3738 38.2872C74.024 38.7146 73.3939 38.7775 72.9665 38.4277C72.3708 37.9401 67.863 34.1395 68.0361 28.2275M68.0361 28.2271C68.2074 22.3132 73.0907 16.0769 80.1955 16.0769C87.2218 16.0769 92.237 22.2236 92.3514 28.2374L91.3516 28.2564L92.3514 28.2372C92.3514 28.2372 92.3514 28.2373 92.3514 28.2374C92.467 34.252 87.7014 38.0165 87.146 38.4453C86.7089 38.7828 86.0809 38.7021 85.7434 38.265C85.4058 37.8279 85.4865 37.1999 85.9237 36.8623C86.4538 36.453 90.4471 33.2327 90.3517 28.2756L90.3517 28.2754C90.2551 23.1965 85.9836 18.0769 80.1955 18.0769M91.3515 28.2564L91.3516 28.2564Z" fill="#186FD5"/>
<path fill-rule="evenodd" clip-rule="evenodd" d="M74.4914 37.1999C74.7421 37.692 74.5465 38.2942 74.0544 38.5449C66.6975 42.2934 61.0615 48.7337 58.3146 56.5318C58.1311 57.0527 57.56 57.3262 57.0391 57.1428C56.5182 56.9593 56.2447 56.3882 56.4282 55.8673C59.3455 47.5855 65.3314 40.7449 73.1464 36.7629C73.6385 36.5122 74.2407 36.7078 74.4914 37.1999Z" fill="#186FD5"/>
<path fill-rule="evenodd" clip-rule="evenodd" d="M85.6363 37.1783C85.878 36.6818 86.4765 36.4752 86.9731 36.717C94.9454 40.5982 101.057 47.486 103.969 55.8714C104.15 56.3931 103.874 56.9629 103.353 57.1441C102.831 57.3253 102.261 57.0493 102.08 56.5276C99.3407 48.6413 93.5936 42.1645 86.0977 38.5152C85.6011 38.2734 85.3945 37.6749 85.6363 37.1783Z" fill="#186FD5"/>
<path fill-rule="evenodd" clip-rule="evenodd" d="M81.4818 87.0262L60.6886 99.984L59.6309 98.2867L80.4241 85.3289L81.4818 87.0262Z" fill="#186FD5"/>
<path fill-rule="evenodd" clip-rule="evenodd" d="M81.4815 85.3289L102.278 98.2867L101.221 99.9841L80.4238 87.0263L81.4815 85.3289Z" fill="#186FD5"/>
<path fill-rule="evenodd" clip-rule="evenodd" d="M81.9531 65.9669V86.6873H79.9531V65.9669H81.9531Z" fill="#186FD5"/>
</g>
<defs>
<clipPath id="clip0_405_812">
<rect width="162.162" height="150" fill="white"/>
</clipPath>
</defs>
</svg>
