<svg width="269" height="42" viewBox="0 0 269 42" fill="none" xmlns="http://www.w3.org/2000/svg">
<path d="M43.998 32.5587V11.4546H51.8784C53.5985 11.4546 55.0234 11.7534 56.1533 12.3511C57.2832 12.9488 58.1288 13.7663 58.6901 14.8036C59.2515 15.8341 59.5321 16.9951 59.5321 18.2866C59.5321 19.585 59.2479 20.7529 58.6793 21.7903C58.118 22.8207 57.2688 23.6382 56.1317 24.2428C55.0018 24.8405 53.5805 25.1393 51.8677 25.1393H46.4485V22.4395H51.5654C52.6521 22.4395 53.5337 22.2608 54.2102 21.9036C54.8867 21.5395 55.3832 21.0449 55.6999 20.4197C56.0166 19.7946 56.1749 19.0835 56.1749 18.2866C56.1749 17.4897 56.0166 16.7821 55.6999 16.1639C55.3832 15.5456 54.8831 15.0613 54.1994 14.7109C53.5229 14.3605 52.6305 14.1853 51.5222 14.1853H47.3337V32.5587H43.998Z" fill="white"/>
<path d="M70.1221 32.8782C68.4885 32.8782 67.0815 32.545 65.9012 31.8786C64.7282 31.2054 63.8214 30.2608 63.1809 29.0448C62.5476 27.822 62.2309 26.3896 62.2309 24.7477C62.2309 23.1264 62.5476 21.6975 63.1809 20.4609C63.8214 19.2244 64.7138 18.2592 65.8581 17.5653C67.0095 16.8715 68.3553 16.5245 69.8954 16.5245C70.831 16.5245 71.7378 16.6722 72.6158 16.9676C73.4938 17.263 74.2818 17.7267 74.9799 18.3588C75.678 18.9908 76.2285 19.8117 76.6315 20.8216C77.0346 21.8246 77.2361 23.044 77.2361 24.4798V25.5721H64.0553V23.2638H74.0731C74.0731 22.4532 73.9004 21.7353 73.5549 21.1101C73.2095 20.4781 72.7237 19.9801 72.0976 19.616C71.4787 19.2519 70.7518 19.0698 69.917 19.0698C69.0102 19.0698 68.2186 19.2828 67.5421 19.7087C66.8728 20.1278 66.3546 20.6773 65.9876 21.3575C65.6278 22.0307 65.4478 22.7623 65.4478 23.5524V25.3557C65.4478 26.4137 65.6422 27.3136 66.0308 28.0555C66.4266 28.7975 66.9771 29.3642 67.6824 29.7558C68.3877 30.1405 69.2117 30.3329 70.1545 30.3329C70.7662 30.3329 71.324 30.2505 71.8277 30.0856C72.3315 29.9138 72.7669 29.6597 73.1339 29.323C73.501 28.9864 73.7816 28.5708 73.976 28.0762L77.031 28.6017C76.7863 29.4604 76.3473 30.2127 75.714 30.8584C75.0878 31.4973 74.2998 31.9954 73.3498 32.3526C72.4071 32.703 71.3312 32.8782 70.1221 32.8782Z" fill="white"/>
<path d="M91.4181 16.7306V19.3892H84.0019V32.5587H80.8173V16.7306H91.4181Z" fill="white"/>
<path d="M97.9923 28.241L105.301 16.7306H108.777V32.5587H105.614V21.038L98.3377 32.5587H94.8293V16.7306H97.9923V28.241Z" fill="white"/>
<path d="M120.101 32.8782C118.546 32.8782 117.19 32.5381 116.031 31.858C114.872 31.1779 113.973 30.2264 113.332 29.0036C112.692 27.7808 112.371 26.3518 112.371 24.7168C112.371 23.0749 112.692 21.6391 113.332 20.4094C113.973 19.1797 114.872 18.2248 116.031 17.5447C117.19 16.8646 118.546 16.5245 120.101 16.5245C121.655 16.5245 123.012 16.8646 124.17 17.5447C125.329 18.2248 126.229 19.1797 126.869 20.4094C127.51 21.6391 127.83 23.0749 127.83 24.7168C127.83 26.3518 127.51 27.7808 126.869 29.0036C126.229 30.2264 125.329 31.1779 124.17 31.858C123.012 32.5381 121.655 32.8782 120.101 32.8782ZM120.111 30.2917C121.119 30.2917 121.954 30.0375 122.616 29.5291C123.278 29.0208 123.767 28.3441 124.084 27.4991C124.408 26.6541 124.57 25.7232 124.57 24.7065C124.57 23.6966 124.408 22.7692 124.084 21.9242C123.767 21.0724 123.278 20.3888 122.616 19.8736C121.954 19.3583 121.119 19.1007 120.111 19.1007C119.097 19.1007 118.255 19.3583 117.585 19.8736C116.923 20.3888 116.43 21.0724 116.106 21.9242C115.79 22.7692 115.631 23.6966 115.631 24.7065C115.631 25.7232 115.79 26.6541 116.106 27.4991C116.43 28.3441 116.923 29.0208 117.585 29.5291C118.255 30.0375 119.097 30.2917 120.111 30.2917Z" fill="white"/>
<path d="M142.67 23.3154V25.9843H133.689V23.3154H142.67ZM134.596 16.7306V32.5587H131.433V16.7306H134.596ZM144.927 16.7306V32.5587H141.774V16.7306H144.927Z" fill="white"/>
<path d="M162.62 32.5587L155.193 23.099H152.839V32.5587H149.504V11.4546H152.839V20.3682H153.93L162.285 11.4546H166.355L157.514 20.904L166.689 32.5587H162.62Z" fill="white"/>
<path d="M175.288 32.8782C173.733 32.8782 172.377 32.5381 171.218 31.858C170.059 31.1779 169.16 30.2264 168.519 29.0036C167.879 27.7808 167.558 26.3518 167.558 24.7168C167.558 23.0749 167.879 21.6391 168.519 20.4094C169.16 19.1797 170.059 18.2248 171.218 17.5447C172.377 16.8646 173.733 16.5245 175.288 16.5245C176.842 16.5245 178.199 16.8646 179.357 17.5447C180.516 18.2248 181.416 19.1797 182.056 20.4094C182.697 21.6391 183.017 23.0749 183.017 24.7168C183.017 26.3518 182.697 27.7808 182.056 29.0036C181.416 30.2264 180.516 31.1779 179.357 31.858C178.199 32.5381 176.842 32.8782 175.288 32.8782ZM175.298 30.2917C176.306 30.2917 177.141 30.0375 177.803 29.5291C178.465 29.0208 178.954 28.3441 179.271 27.4991C179.595 26.6541 179.757 25.7232 179.757 24.7065C179.757 23.6966 179.595 22.7692 179.271 21.9242C178.954 21.0724 178.465 20.3888 177.803 19.8736C177.141 19.3583 176.306 19.1007 175.298 19.1007C174.284 19.1007 173.442 19.3583 172.772 19.8736C172.11 20.3888 171.617 21.0724 171.293 21.9242C170.977 22.7692 170.818 23.6966 170.818 24.7065C170.818 25.7232 170.977 26.6541 171.293 27.4991C171.617 28.3441 172.11 29.0208 172.772 29.5291C173.442 30.0375 174.284 30.2917 175.298 30.2917Z" fill="white"/>
<path d="M197.857 23.3154V25.9843H188.876V23.3154H197.857ZM189.783 16.7306V32.5587H186.62V16.7306H189.783ZM200.114 16.7306V32.5587H196.961V16.7306H200.114Z" fill="white"/>
<path d="M211.416 32.8782C209.811 32.8782 208.429 32.5312 207.271 31.8374C206.119 31.1367 205.234 30.1715 204.615 28.9418C203.996 27.7121 203.687 26.3037 203.687 24.7168C203.687 23.1093 204.003 21.6906 204.637 20.4609C205.27 19.2244 206.162 18.2592 207.314 17.5653C208.465 16.8715 209.822 16.5245 211.384 16.5245C212.643 16.5245 213.766 16.7478 214.752 17.1943C215.738 17.634 216.533 18.2523 217.137 19.0492C217.749 19.8461 218.113 20.777 218.228 21.8418H215.086C214.914 21.0998 214.518 20.4609 213.899 19.9251C213.287 19.3892 212.467 19.1213 211.438 19.1213C210.538 19.1213 209.75 19.348 209.074 19.8014C208.404 20.248 207.882 20.8869 207.508 21.7181C207.134 22.5425 206.947 23.518 206.947 24.6447C206.947 25.7988 207.13 26.7949 207.497 27.633C207.864 28.4712 208.383 29.1204 209.052 29.5806C209.728 30.0409 210.524 30.2711 211.438 30.2711C212.049 30.2711 212.603 30.1646 213.1 29.9516C213.604 29.7318 214.025 29.4192 214.363 29.0139C214.709 28.6086 214.95 28.1208 215.086 27.5506H218.228C218.113 28.5742 217.764 29.4879 217.181 30.2917C216.598 31.0954 215.817 31.7275 214.838 32.1878C213.867 32.648 212.726 32.8782 211.416 32.8782Z" fill="white"/>
<path d="M226.505 32.9091C225.454 32.9091 224.504 32.7236 223.655 32.3526C222.806 31.9748 222.133 31.4286 221.636 30.7142C221.147 29.9997 220.902 29.1238 220.902 28.0865C220.902 27.1934 221.082 26.4583 221.442 25.8812C221.802 25.3042 222.288 24.8473 222.899 24.5107C223.511 24.1741 224.195 23.9199 224.95 23.7482C225.706 23.5764 226.476 23.4459 227.26 23.3566C228.254 23.2467 229.06 23.1574 229.679 23.0887C230.298 23.0131 230.747 22.8929 231.028 22.728C231.309 22.5631 231.449 22.2952 231.449 21.9242V21.8521C231.449 20.9521 231.183 20.2548 230.65 19.7602C230.125 19.2656 229.34 19.0183 228.297 19.0183C227.21 19.0183 226.354 19.2484 225.728 19.7087C225.109 20.1621 224.68 20.667 224.443 21.2235L221.41 20.564C221.769 19.6022 222.295 18.8259 222.986 18.2351C223.684 17.6374 224.486 17.2046 225.393 16.9367C226.3 16.6619 227.253 16.5245 228.254 16.5245C228.916 16.5245 229.617 16.6001 230.359 16.7512C231.107 16.8955 231.805 17.1634 232.453 17.555C233.108 17.9466 233.644 18.5065 234.061 19.2347C234.479 19.956 234.688 20.8937 234.688 22.0479V32.5587H231.535V30.3947H231.406C231.197 30.7932 230.884 31.1848 230.467 31.5695C230.049 31.9542 229.513 32.2736 228.858 32.5278C228.203 32.782 227.419 32.9091 226.505 32.9091ZM227.207 30.4359C228.099 30.4359 228.862 30.2676 229.495 29.931C230.136 29.5944 230.621 29.1547 230.952 28.612C231.291 28.0624 231.46 27.475 231.46 26.8499V24.8095C231.345 24.9195 231.122 25.0225 230.79 25.1187C230.467 25.208 230.096 25.287 229.679 25.3557C229.261 25.4175 228.855 25.4759 228.459 25.5309C228.063 25.579 227.732 25.6202 227.466 25.6545C226.839 25.7301 226.267 25.8572 225.749 26.0358C225.238 26.2144 224.828 26.472 224.519 26.8087C224.216 27.1384 224.065 27.5781 224.065 28.1277C224.065 28.8902 224.36 29.4673 224.95 29.8589C225.54 30.2436 226.293 30.4359 227.207 30.4359Z" fill="white"/>
<path d="M237.68 32.5587L237.67 29.8898H238.263C238.724 29.8898 239.109 29.797 239.418 29.6116C239.735 29.4192 239.994 29.0963 240.196 28.6429C240.397 28.1895 240.552 27.5644 240.66 26.7675C240.768 25.9637 240.847 24.9538 240.897 23.7379L241.189 16.7306H252.761V32.5587H249.598V19.3892H244.179L243.92 24.7683C243.855 26.0736 243.715 27.214 243.499 28.1895C243.29 29.165 242.984 29.9791 242.581 30.6317C242.178 31.2775 241.66 31.7618 241.027 32.0847C240.394 32.4007 239.624 32.5587 238.717 32.5587H237.68Z" fill="white"/>
<path d="M255.009 19.3892V16.7306H269V19.3892H263.591V32.5587H260.439V19.3892H255.009Z" fill="white"/>
<path d="M0 32.2136H14.6691V24.8738H7.76601V15.0874L19.8465 8.97087L31.0641 15.0874V27.3204L19.8465 33.0291V42L38.3986 32.2136V10.6019L19.8465 0L0 10.6019V32.2136Z" fill="white"/>
</svg>
