<svg width="213" height="34" viewBox="0 0 213 34" fill="none" xmlns="http://www.w3.org/2000/svg">
<path d="M34.7578 26.357V9.27271H40.983C42.3418 9.27271 43.4674 9.51462 44.36 9.99845C45.2526 10.4823 45.9206 11.1441 46.364 11.9838C46.8075 12.818 47.0292 13.7579 47.0292 14.8034C47.0292 15.8545 46.8046 16.7999 46.3555 17.6397C45.912 18.4739 45.2412 19.1357 44.343 19.6251C43.4504 20.1089 42.3276 20.3508 40.9745 20.3508H36.6936V18.1652H40.7357C41.5942 18.1652 42.2906 18.0206 42.825 17.7314C43.3594 17.4367 43.7517 17.0363 44.0018 16.5302C44.252 16.0241 44.3771 15.4485 44.3771 14.8034C44.3771 14.1583 44.252 13.5855 44.0018 13.085C43.7517 12.5845 43.3566 12.1924 42.8165 11.9088C42.2821 11.6251 41.5771 11.4833 40.7016 11.4833H37.3929V26.357H34.7578Z" fill="black"/>
<path d="M55.3949 26.6156C54.1043 26.6156 52.9929 26.3459 52.0605 25.8064C51.1338 25.2614 50.4175 24.4967 49.9115 23.5124C49.4112 22.5225 49.1611 21.363 49.1611 20.0338C49.1611 18.7213 49.4112 17.5646 49.9115 16.5636C50.4175 15.5625 51.1225 14.7812 52.0264 14.2195C52.936 13.6578 53.9992 13.3769 55.2158 13.3769C55.9548 13.3769 56.6712 13.4965 57.3648 13.7356C58.0583 13.9748 58.6809 14.3502 59.2323 14.8618C59.7838 15.3734 60.2187 16.038 60.5371 16.8555C60.8554 17.6675 61.0146 18.6546 61.0146 19.8169V20.7012H50.6023V18.8326H58.516C58.516 18.1763 58.3795 17.5952 58.1067 17.0891C57.8338 16.5775 57.45 16.1743 56.9554 15.8795C56.4665 15.5848 55.8923 15.4374 55.2328 15.4374C54.5165 15.4374 53.8911 15.6098 53.3567 15.9546C52.828 16.2938 52.4187 16.7387 52.1287 17.2893C51.8445 17.8343 51.7024 18.4266 51.7024 19.0661V20.526C51.7024 21.3824 51.8559 22.111 52.1629 22.7116C52.4755 23.3122 52.9104 23.771 53.4676 24.088C54.0247 24.3994 54.6757 24.5551 55.4204 24.5551C55.9037 24.5551 56.3443 24.4884 56.7422 24.3549C57.1402 24.2159 57.4841 24.0101 57.7741 23.7376C58.064 23.4651 58.2857 23.1287 58.4392 22.7283L60.8526 23.1537C60.6593 23.8489 60.3125 24.4578 59.8122 24.9806C59.3176 25.4978 58.6951 25.901 57.9446 26.1902C57.1999 26.4738 56.35 26.6156 55.3949 26.6156Z" fill="black"/>
<path d="M72.2179 13.5438V15.696H66.3593V26.357H63.8437V13.5438H72.2179Z" fill="black"/>
<path d="M77.4112 22.8617L83.1845 13.5438H85.9304V26.357H83.4318V17.0307L77.6841 26.357H74.9126V13.5438H77.4112V22.8617Z" fill="black"/>
<path d="M94.876 26.6156C93.648 26.6156 92.5763 26.3403 91.661 25.7897C90.7457 25.2392 90.0351 24.4689 89.5291 23.479C89.0231 22.4891 88.7701 21.3324 88.7701 20.0088C88.7701 18.6796 89.0231 17.5173 89.5291 16.5219C90.0351 15.5264 90.7457 14.7534 91.661 14.2028C92.5763 13.6522 93.648 13.3769 94.876 13.3769C96.104 13.3769 97.1756 13.6522 98.0909 14.2028C99.0062 14.7534 99.7169 15.5264 100.223 16.5219C100.729 17.5173 100.982 18.6796 100.982 20.0088C100.982 21.3324 100.729 22.4891 100.223 23.479C99.7169 24.4689 99.0062 25.2392 98.0909 25.7897C97.1756 26.3403 96.104 26.6156 94.876 26.6156ZM94.8845 24.5218C95.6804 24.5218 96.3399 24.316 96.8629 23.9045C97.386 23.4929 97.7726 22.9451 98.0227 22.2611C98.2785 21.5771 98.4064 20.8235 98.4064 20.0004C98.4064 19.1829 98.2785 18.4322 98.0227 17.7481C97.7726 17.0585 97.386 16.5052 96.8629 16.0881C96.3399 15.671 95.6804 15.4624 94.8845 15.4624C94.0829 15.4624 93.4177 15.671 92.889 16.0881C92.366 16.5052 91.9766 17.0585 91.7207 17.7481C91.4706 18.4322 91.3455 19.1829 91.3455 20.0004C91.3455 20.8235 91.4706 21.5771 91.7207 22.2611C91.9766 22.9451 92.366 23.4929 92.889 23.9045C93.4177 24.316 94.0829 24.5218 94.8845 24.5218Z" fill="black"/>
<path d="M112.705 18.8743V21.0348H105.61V18.8743H112.705ZM106.327 13.5438V26.357H103.828V13.5438H106.327ZM114.488 13.5438V26.357H111.997V13.5438H114.488Z" fill="black"/>
<path d="M128.464 26.357L122.597 18.6991H120.738V26.357H118.103V9.27271H120.738V16.4885H121.6L128.2 9.27271H131.415L124.431 16.9223L131.679 26.357H128.464Z" fill="black"/>
<path d="M138.472 26.6156C137.244 26.6156 136.172 26.3403 135.257 25.7897C134.341 25.2392 133.631 24.4689 133.125 23.479C132.619 22.4891 132.366 21.3324 132.366 20.0088C132.366 18.6796 132.619 17.5173 133.125 16.5219C133.631 15.5264 134.341 14.7534 135.257 14.2028C136.172 13.6522 137.244 13.3769 138.472 13.3769C139.7 13.3769 140.771 13.6522 141.687 14.2028C142.602 14.7534 143.313 15.5264 143.819 16.5219C144.325 17.5173 144.578 18.6796 144.578 20.0088C144.578 21.3324 144.325 22.4891 143.819 23.479C143.313 24.4689 142.602 25.2392 141.687 25.7897C140.771 26.3403 139.7 26.6156 138.472 26.6156ZM138.48 24.5218C139.276 24.5218 139.936 24.316 140.459 23.9045C140.982 23.4929 141.368 22.9451 141.618 22.2611C141.874 21.5771 142.002 20.8235 142.002 20.0004C142.002 19.1829 141.874 18.4322 141.618 17.7481C141.368 17.0585 140.982 16.5052 140.459 16.0881C139.936 15.671 139.276 15.4624 138.48 15.4624C137.679 15.4624 137.013 15.671 136.485 16.0881C135.962 16.5052 135.572 17.0585 135.316 17.7481C135.066 18.4322 134.941 19.1829 134.941 20.0004C134.941 20.8235 135.066 21.5771 135.316 22.2611C135.572 22.9451 135.962 23.4929 136.485 23.9045C137.013 24.316 137.679 24.5218 138.48 24.5218Z" fill="black"/>
<path d="M156.301 18.8743V21.0348H149.206V18.8743H156.301ZM149.922 13.5438V26.357H147.424V13.5438H149.922ZM158.083 13.5438V26.357H155.593V13.5438H158.083Z" fill="black"/>
<path d="M167.012 26.6156C165.744 26.6156 164.652 26.3348 163.737 25.7731C162.828 25.2058 162.128 24.4245 161.639 23.429C161.15 22.4335 160.906 21.2934 160.906 20.0088C160.906 18.7074 161.156 17.559 161.656 16.5636C162.157 15.5625 162.862 14.7812 163.771 14.2195C164.681 13.6578 165.753 13.3769 166.986 13.3769C167.981 13.3769 168.868 13.5577 169.647 13.9192C170.426 14.2751 171.054 14.7756 171.531 15.4207C172.015 16.0658 172.302 16.8194 172.393 17.6814H169.911C169.775 17.0808 169.462 16.5636 168.973 16.1298C168.49 15.696 167.842 15.4791 167.029 15.4791C166.318 15.4791 165.696 15.6626 165.161 16.0297C164.633 16.3912 164.22 16.9084 163.925 17.5813C163.629 18.2486 163.481 19.0383 163.481 19.9504C163.481 20.8847 163.626 21.6911 163.916 22.3696C164.206 23.048 164.616 23.5736 165.144 23.9462C165.679 24.3188 166.307 24.5051 167.029 24.5051C167.512 24.5051 167.95 24.4189 168.342 24.2465C168.74 24.0685 169.073 23.8155 169.34 23.4874C169.613 23.1593 169.803 22.7644 169.911 22.3028H172.393C172.302 23.1315 172.026 23.8711 171.566 24.5218C171.105 25.1724 170.488 25.6841 169.715 26.0567C168.948 26.4293 168.046 26.6156 167.012 26.6156Z" fill="black"/>
<path d="M178.931 26.6406C178.101 26.6406 177.351 26.4905 176.68 26.1902C176.009 25.8843 175.478 25.4422 175.085 24.8638C174.699 24.2854 174.506 23.5764 174.506 22.7366C174.506 22.0136 174.648 21.4186 174.932 20.9514C175.216 20.4843 175.6 20.1144 176.083 19.8419C176.566 19.5694 177.106 19.3637 177.703 19.2246C178.3 19.0856 178.909 18.9799 179.528 18.9076C180.313 18.8187 180.95 18.7464 181.439 18.6908C181.927 18.6296 182.283 18.5323 182.505 18.3988C182.726 18.2653 182.837 18.0484 182.837 17.7481V17.6897C182.837 16.9612 182.627 16.3967 182.206 15.9963C181.791 15.5959 181.171 15.3957 180.347 15.3957C179.489 15.3957 178.812 15.582 178.317 15.9546C177.828 16.3216 177.49 16.7304 177.303 17.1809L174.906 16.647C175.191 15.8684 175.606 15.24 176.151 14.7617C176.703 14.2779 177.337 13.9275 178.053 13.7106C178.769 13.4882 179.523 13.3769 180.313 13.3769C180.836 13.3769 181.39 13.4381 181.976 13.5605C182.567 13.6773 183.119 13.8941 183.63 14.2111C184.148 14.5281 184.571 14.9814 184.901 15.5709C185.231 16.1548 185.395 16.9139 185.395 17.8482V26.357H182.905V24.6052H182.803C182.638 24.9277 182.391 25.2447 182.061 25.5562C181.731 25.8676 181.308 26.1262 180.79 26.332C180.273 26.5377 179.653 26.6406 178.931 26.6406ZM179.486 24.6386C180.191 24.6386 180.793 24.5023 181.294 24.2298C181.8 23.9573 182.183 23.6014 182.445 23.162C182.712 22.7171 182.846 22.2416 182.846 21.7356V20.0839C182.755 20.1728 182.578 20.2563 182.317 20.3341C182.061 20.4064 181.768 20.4704 181.439 20.526C181.109 20.576 180.788 20.6233 180.475 20.6678C180.162 20.7067 179.901 20.7401 179.69 20.7679C179.196 20.8291 178.744 20.932 178.334 21.0766C177.931 21.2211 177.607 21.4297 177.362 21.7022C177.124 21.9691 177.004 22.3251 177.004 22.77C177.004 23.3873 177.237 23.8544 177.703 24.1714C178.17 24.4828 178.764 24.6386 179.486 24.6386Z" fill="black"/>
<path d="M187.76 26.357L187.751 24.1964H188.22C188.584 24.1964 188.888 24.1214 189.133 23.9712C189.383 23.8155 189.587 23.5541 189.747 23.1871C189.906 22.82 190.028 22.3139 190.113 21.6688C190.199 21.0182 190.261 20.2006 190.301 19.2163L190.531 13.5438H199.673V26.357H197.174V15.696H192.893L192.689 20.0505C192.638 21.1071 192.527 22.0303 192.356 22.82C192.191 23.6097 191.95 24.2687 191.631 24.7971C191.313 25.3198 190.904 25.7119 190.403 25.9733C189.903 26.2291 189.295 26.357 188.578 26.357H187.76Z" fill="black"/>
<path d="M201.449 15.696V13.5438H212.501V15.696H208.228V26.357H205.738V15.696H201.449Z" fill="black"/>
<path d="M0 26.0777H11.5881V20.1359H6.13486V12.2136L15.678 7.26214L24.5394 12.2136V22.1165L15.678 26.7379V34L30.3335 26.0777V8.58252L15.678 0L0 8.58252V26.0777Z" fill="#186FD5"/>
</svg>
