<svg width="29" height="27" fill="none" xmlns="http://www.w3.org/2000/svg"><path fill-rule="evenodd" clip-rule="evenodd" d="M0 3.83335C0 2.23172 1.29837 0.93335 2.9 0.93335H26.1C27.7016 0.93335 29 2.23172 29 3.83335V23.1667C29 24.7683 27.7016 26.0667 26.1 26.0667H2.9C1.29838 26.0667 0 24.7683 0 23.1667V3.83335ZM2.9 2.86668C2.36612 2.86668 1.93333 3.29947 1.93333 3.83335V7.13904L14.5 14.32L27.0667 7.13904V3.83335C27.0667 3.29947 26.6339 2.86668 26.1 2.86668H2.9ZM27.0667 9.36576L14.5 16.5467L1.93333 9.36576V23.1667C1.93333 23.7006 2.36613 24.1334 2.9 24.1334H26.1C26.6339 24.1334 27.0667 23.7006 27.0667 23.1667V9.36576Z" fill="#9E6A57"/></svg>