<svg width="18" height="19" viewBox="0 0 18 19" fill="none" xmlns="http://www.w3.org/2000/svg">
<path fill-rule="evenodd" clip-rule="evenodd" d="M9.36374 1.32909C10.1294 0.563437 11.1678 0.133301 12.2506 0.133301C14.5054 0.133301 16.3333 1.96118 16.3333 4.21598C16.3333 5.29877 15.9032 6.33721 15.1375 7.10286L7.84486 14.3955C7.41515 14.8252 6.83234 15.0666 6.22464 15.0666C4.95917 15.0666 3.9333 14.0408 3.9333 12.7753C3.9333 12.1676 4.17471 11.5848 4.60442 11.1551L11.6797 4.07975L12.3869 4.78685L5.31152 11.8622C5.06935 12.1044 4.9333 12.4328 4.9333 12.7753C4.9333 13.4885 5.51145 14.0666 6.22464 14.0666C6.56712 14.0666 6.89558 13.9306 7.13775 13.6884L14.4304 6.39576C15.0085 5.81764 15.3333 5.03355 15.3333 4.21598C15.3333 2.51346 13.9531 1.1333 12.2506 1.1333C11.4331 1.1333 10.649 1.45808 10.0708 2.03619L2.56087 9.54618C1.64681 10.4602 1.1333 11.7 1.1333 12.9926C1.1333 15.6845 3.31547 17.8666 6.00731 17.8666C7.29998 17.8666 8.5397 17.3531 9.45376 16.4391L16.7464 9.14641L17.4535 9.85352L10.1609 17.1462C9.05927 18.2478 7.5652 18.8666 6.00731 18.8666C2.76319 18.8666 0.133301 16.2367 0.133301 12.9926C0.133301 11.4347 0.752168 9.94066 1.85376 8.83907L9.36374 1.32909Z" fill="black"/>
</svg>
