<svg width="37" height="37" viewBox="0 0 37 37" fill="none" xmlns="http://www.w3.org/2000/svg">
<path d="M18.5 37C28.7173 37 37 28.7173 37 18.5C37 8.28273 28.7173 0 18.5 0C8.28273 0 0 8.28273 0 18.5C0 28.7173 8.28273 37 18.5 37Z" fill="#2197D4"/>
<path d="M12.5142 19.8511L14.7068 25.9273C14.7068 25.9273 14.9808 26.4946 15.2768 26.4946C15.5728 26.4946 19.9361 21.9478 19.9361 21.9478L24.8091 12.5635L12.5991 18.2861L12.5142 19.8511Z" fill="#C8DAEA"/>
<path d="M15.4303 21.408L15.011 25.8863C15.011 25.8863 14.8328 27.2567 16.2059 25.8863C17.5791 24.516 18.8891 23.458 18.8891 23.458L15.4303 21.408Z" fill="#A9C6D8"/>
<path d="M12.5607 20.0678L8.0467 18.5933C8.0467 18.5933 7.49855 18.3741 7.67944 17.878C7.71507 17.7766 7.78907 17.6889 8.00285 17.5381C9.00322 16.842 26.5193 10.5465 26.5193 10.5465C26.7717 10.4576 27.0432 10.4377 27.3059 10.489C27.3781 10.5121 27.443 10.5535 27.4944 10.6092C27.5458 10.665 27.5819 10.733 27.5991 10.8069C27.6298 10.937 27.6427 11.0707 27.6375 11.2043C27.6375 11.3221 27.6211 11.429 27.6101 11.5989C27.5032 13.3201 24.3212 26.166 24.3212 26.166C24.3212 26.166 24.1294 26.9169 23.4442 26.9416C23.2763 26.9476 23.1089 26.9197 22.952 26.8594C22.7952 26.7991 22.6522 26.7078 22.5315 26.5908C21.1885 25.4342 16.5457 22.3152 15.5207 21.63C15.4976 21.6139 15.4781 21.5932 15.4635 21.5691C15.4489 21.5451 15.4394 21.5182 15.4357 21.4903C15.422 21.419 15.5015 21.3286 15.5015 21.3286C15.5015 21.3286 23.584 14.1451 23.7977 13.3804C23.8142 13.3229 23.7511 13.2927 23.6662 13.3174C23.118 13.5147 13.8242 19.3909 12.7964 20.0404C12.7213 20.0689 12.6403 20.0784 12.5607 20.0678Z" fill="white"/>
</svg>
