<svg width="37" height="37" viewBox="0 0 37 37" fill="none" xmlns="http://www.w3.org/2000/svg">
<path d="M18.5 37C28.7173 37 37 28.7173 37 18.5C37 8.28273 28.7173 0 18.5 0C8.28273 0 0 8.28273 0 18.5C0 28.7173 8.28273 37 18.5 37Z" fill="#1F3C7F"/>
<path d="M27.6824 23.3517C27.0011 22.8203 26.2858 22.3412 25.575 21.8529C24.1579 20.8764 22.8635 20.8015 21.8076 22.3707C21.2126 23.2518 20.3837 23.2791 19.5139 22.9044C17.1181 21.8393 15.2696 20.1997 14.1886 17.813C13.7095 16.757 13.714 15.81 14.8359 15.0629C15.4286 14.6678 16.0281 14.2022 15.9713 13.337C15.91 12.2016 13.1236 8.45228 12.0245 8.05714C11.5802 7.8986 11.0948 7.8986 10.6506 8.05714C8.0708 8.90873 7.00347 10.9889 8.02538 13.4506C11.0798 20.7992 16.4527 25.9156 23.8491 29.0381C24.2187 29.1726 24.5983 29.2774 24.9846 29.3515C26.6673 29.3674 28.6407 27.7778 29.2107 26.1995C29.7603 24.6825 28.5999 24.0784 27.6847 23.354L27.6824 23.3517Z" fill="white"/>
</svg>
