<svg width="29" height="29" viewBox="0 0 29 29" fill="none" xmlns="http://www.w3.org/2000/svg">
<path fill-rule="evenodd" clip-rule="evenodd" d="M0 4.83333C0 2.16396 2.16396 0 4.83333 0H9.12383C10.4545 0 11.6145 0.905662 11.9372 2.19665L13.0703 6.72868C13.4378 8.19879 12.6115 9.70401 11.1739 10.1832L9.03055 10.8977C8.37435 11.1164 7.98372 11.7895 8.11937 12.4678C8.96844 16.7131 12.2869 20.0316 16.5322 20.8806C17.2105 21.0163 17.8836 20.6257 18.1023 19.9694L18.678 18.2424C19.2361 16.5682 21.1476 15.7764 22.7261 16.5656L27.3969 18.901C28.3794 19.3923 29 20.3964 29 21.4949V24.1667C29 26.836 26.836 29 24.1667 29H20.3C9.08862 29 0 19.9114 0 8.7V4.83333ZM4.83333 1.93333C3.23171 1.93333 1.93333 3.23171 1.93333 4.83333V8.7C1.93333 18.8436 10.1564 27.0667 20.3 27.0667H24.1667C25.7683 27.0667 27.0667 25.7683 27.0667 24.1667V21.4949C27.0667 21.1287 26.8598 20.794 26.5323 20.6303L21.8615 18.2949C21.3353 18.0318 20.6982 18.2957 20.5121 18.8538L19.9365 20.5808C19.4094 22.162 17.7874 23.1033 16.1531 22.7764C11.1424 21.7743 7.22571 17.8576 6.22358 12.8469C5.89671 11.2126 6.83799 9.5906 8.41917 9.06354L10.5625 8.34909C11.0417 8.18936 11.3172 7.68762 11.1946 7.19758L10.0616 2.66555C9.95405 2.23522 9.5674 1.93333 9.12383 1.93333H4.83333Z" fill="#9E6A57"/>
</svg>
