<svg width="25" height="29" viewBox="0 0 25 29" fill="none" xmlns="http://www.w3.org/2000/svg">
<path fill-rule="evenodd" clip-rule="evenodd" d="M12.5001 1.93451C6.80888 1.93451 2.19391 6.69665 2.19391 12.5667C2.19391 17.06 4.37078 20.6948 6.83813 23.2404C8.06872 24.51 9.35243 25.4874 10.4285 26.1422C10.9669 26.4698 11.4422 26.7098 11.8229 26.8649C12.231 27.0312 12.4478 27.0655 12.5001 27.0655C12.5523 27.0655 12.7691 27.0312 13.1772 26.8649C13.5579 26.7098 14.0333 26.4698 14.5716 26.1422C15.6477 25.4874 16.9314 24.51 18.162 23.2404C20.6294 20.6948 22.8062 17.06 22.8062 12.5667C22.8062 6.69665 18.1913 1.93451 12.5001 1.93451ZM0.320068 12.5667C0.320068 5.62705 5.77515 0 12.5001 0C19.225 0 24.6801 5.62705 24.6801 12.5667C24.6801 17.7396 22.1723 21.8379 19.4866 24.6087C18.1406 25.9974 16.7307 27.074 15.523 27.8088C14.9195 28.176 14.3555 28.4646 13.8651 28.6644C13.4022 28.853 12.9163 29 12.5001 29C12.0839 29 11.5979 28.853 11.135 28.6644C10.6446 28.4646 10.0806 28.176 9.47709 27.8088C8.26944 27.074 6.85949 25.9974 5.51355 24.6087C2.82781 21.8379 0.320068 17.7396 0.320068 12.5667ZM7.81545 12.5667C7.81545 9.89759 9.91447 7.73296 12.5001 7.73296C15.0857 7.73296 17.1847 9.89759 17.1847 12.5667C17.1847 15.2358 15.0857 17.4005 12.5001 17.4005C9.91446 17.4005 7.81545 15.2358 7.81545 12.5667ZM12.5001 9.66747C10.9482 9.66747 9.6893 10.9672 9.6893 12.5667C9.6893 14.1662 10.9482 15.466 12.5001 15.466C14.0519 15.466 15.3108 14.1662 15.3108 12.5667C15.3108 10.9672 14.0519 9.66747 12.5001 9.66747Z" fill="#9E6A57"/>
</svg>
