<svg width="224" height="227" fill="none" xmlns="http://www.w3.org/2000/svg"><g clip-path="url(#clip0_398_1108)" fill="#186FD5"><path d="M13.846 124.603c-2.592 0-5.125-.767-7.28-2.204a13.084 13.084 0 01-4.826-5.868 13.054 13.054 0 012.84-14.252 13.128 13.128 0 0114.28-2.835 13.094 13.094 0 015.881 4.817 13.057 13.057 0 012.209 7.265 13.08 13.08 0 01-3.843 9.243 13.134 13.134 0 01-9.261 3.834zm0-24.674c-2.298 0-4.545.681-6.456 1.955a11.6 11.6 0 00-4.28 5.204 11.577 11.577 0 002.52 12.638 11.635 11.635 0 0017.879-1.757 11.58 11.58 0 001.957-6.443 11.594 11.594 0 00-3.406-8.197 11.643 11.643 0 00-8.214-3.4z"/><path d="M13.845 125.344c-2.738 0-5.415-.811-7.692-2.329a13.82 13.82 0 01-5.1-6.201 13.79 13.79 0 013.002-15.058 13.872 13.872 0 0115.089-2.996 13.836 13.836 0 016.214 5.09 13.795 13.795 0 01-1.722 17.447 13.86 13.86 0 01-9.79 4.047zM1.483 111.526c0 3.272 1.303 6.41 3.621 8.724a12.377 12.377 0 0017.483 0 12.377 12.377 0 01-17.483 0 12.326 12.326 0 01-3.62-8.724zm12.362-10.856c-2.151 0-4.254.636-6.043 1.829a10.862 10.862 0 00-4.007 4.873 10.833 10.833 0 002.358 11.831 10.888 10.888 0 0011.856 2.353 10.87 10.87 0 004.882-3.998 10.844 10.844 0 00-1.353-13.709 10.889 10.889 0 00-7.693-3.179zm29.669 97.462c-2.592 0-5.125-.767-7.28-2.204a13.086 13.086 0 01-4.826-5.869 13.055 13.055 0 012.84-14.252 13.121 13.121 0 0120.161 1.982 13.06 13.06 0 012.209 7.265 13.08 13.08 0 01-3.843 9.243 13.131 13.131 0 01-9.261 3.835zm0-24.674c-2.298 0-4.545.68-6.456 1.954a11.6 11.6 0 00-4.28 5.204 11.577 11.577 0 002.52 12.638 11.635 11.635 0 0017.879-1.757 11.58 11.58 0 001.957-6.443 11.595 11.595 0 00-3.406-8.197 11.64 11.64 0 00-8.214-3.399z"/><path d="M43.514 198.872a13.87 13.87 0 01-7.693-2.329 13.82 13.82 0 01-5.1-6.201 13.791 13.791 0 013.002-15.058 13.864 13.864 0 0121.303 2.094 13.798 13.798 0 01-1.722 17.447 13.86 13.86 0 01-9.79 4.047zM31.15 185.054c0 3.272 1.303 6.41 3.621 8.724a12.373 12.373 0 008.742 3.613 12.373 12.373 0 01-8.742-3.613 12.326 12.326 0 01-3.62-8.724zm12.363-10.856a10.9 10.9 0 00-6.044 1.829 10.862 10.862 0 00-4.007 4.873 10.834 10.834 0 002.358 11.831 10.888 10.888 0 0011.855 2.353 10.87 10.87 0 004.883-3.998 10.84 10.84 0 00-1.353-13.708 10.89 10.89 0 00-7.693-3.18zm72.196 52.062c-2.591 0-5.125-.767-7.28-2.204a13.081 13.081 0 01-4.826-5.869 13.056 13.056 0 012.841-14.251 13.124 13.124 0 0120.161 1.981 13.067 13.067 0 012.208 7.266 13.079 13.079 0 01-3.842 9.242 13.133 13.133 0 01-9.262 3.835zm0-24.674c-2.298 0-4.545.68-6.456 1.954a11.58 11.58 0 00-1.761 17.843 11.635 11.635 0 0017.879-1.758 11.578 11.578 0 001.959-6.442 11.598 11.598 0 00-3.407-8.198 11.644 11.644 0 00-8.214-3.399z"/><path d="M115.709 227c-2.739 0-5.415-.81-7.692-2.329a13.822 13.822 0 01-5.1-6.201 13.791 13.791 0 013.002-15.058 13.87 13.87 0 0115.088-2.995 13.84 13.84 0 016.214 5.089 13.8 13.8 0 01-1.722 17.447 13.861 13.861 0 01-9.79 4.047zm-12.362-13.817a12.32 12.32 0 003.621 8.723 12.374 12.374 0 0017.482 0 12.374 12.374 0 01-17.482 0 12.32 12.32 0 01-3.621-8.723zm12.362-10.857c-2.152 0-4.255.637-6.044 1.83a10.839 10.839 0 00-1.649 16.703 10.886 10.886 0 005.57 2.972c2.111.418 4.298.203 6.286-.618a10.87 10.87 0 004.882-3.999 10.841 10.841 0 00-1.353-13.708 10.89 10.89 0 00-7.692-3.18zm69.731-8.971c-2.592 0-5.125-.767-7.28-2.204a13.057 13.057 0 01-1.986-20.12 13.123 13.123 0 0120.161 1.981 13.059 13.059 0 012.208 7.266 13.07 13.07 0 01-3.842 9.242 13.131 13.131 0 01-9.261 3.835zm0-24.674c-2.299 0-4.545.68-6.456 1.954a11.599 11.599 0 00-4.28 5.205 11.564 11.564 0 00-.661 6.7 11.591 11.591 0 003.18 5.938 11.637 11.637 0 0017.879-1.758 11.585 11.585 0 001.958-6.442 11.597 11.597 0 00-3.408-8.196 11.647 11.647 0 00-8.212-3.401z"/><path d="M185.439 194.095c-2.738 0-5.415-.811-7.692-2.329a13.82 13.82 0 01-5.099-6.201 13.792 13.792 0 013.001-15.058 13.864 13.864 0 0115.089-2.995 13.838 13.838 0 016.213 5.089 13.793 13.793 0 01-1.722 17.447 13.86 13.86 0 01-9.79 4.047zm-12.362-13.818c0 3.272 1.303 6.41 3.621 8.724a12.373 12.373 0 008.741 3.613 12.373 12.373 0 01-8.741-3.613 12.328 12.328 0 01-3.621-8.724zm12.362-10.856c-2.151 0-4.255.637-6.044 1.83a10.856 10.856 0 00-4.006 4.872 10.846 10.846 0 002.358 11.831 10.902 10.902 0 0011.855 2.354 10.876 10.876 0 004.882-3.999 10.835 10.835 0 00-1.352-13.708 10.893 10.893 0 00-7.693-3.18zm24.716-42.844c-2.592 0-5.126-.767-7.281-2.204a13.088 13.088 0 01-4.826-5.869 13.061 13.061 0 012.841-14.251 13.11 13.11 0 016.709-3.579 13.14 13.14 0 017.571.744 13.096 13.096 0 015.881 4.817 13.056 13.056 0 012.208 7.265 13.078 13.078 0 01-3.842 9.243 13.134 13.134 0 01-9.261 3.834zm0-24.674a11.63 11.63 0 00-10.736 7.159 11.587 11.587 0 002.519 12.638 11.64 11.64 0 0012.663 2.514 11.609 11.609 0 005.215-4.271 11.579 11.579 0 001.959-6.443 11.594 11.594 0 00-3.407-8.197 11.642 11.642 0 00-8.213-3.4z"/><path d="M210.154 127.317c-2.738 0-5.415-.81-7.692-2.328a13.818 13.818 0 01-5.099-6.201 13.786 13.786 0 01-.788-7.984 13.807 13.807 0 013.789-7.074 13.846 13.846 0 017.089-3.782c2.686-.533 5.47-.26 8 .786a13.844 13.844 0 016.213 5.089 13.796 13.796 0 01-1.722 17.447 13.855 13.855 0 01-9.79 4.047zM197.792 113.5c0 3.272 1.303 6.41 3.621 8.724a12.375 12.375 0 008.741 3.613c-3.279 0-6.423-1.3-8.741-3.613a12.328 12.328 0 01-3.621-8.724zm12.362-10.857c-2.151 0-4.255.637-6.044 1.83a10.861 10.861 0 00-4.006 4.872 10.843 10.843 0 002.358 11.832 10.887 10.887 0 0011.855 2.353 10.873 10.873 0 004.882-3.998 10.84 10.84 0 00-1.353-13.709 10.89 10.89 0 00-7.692-3.18zm-27.691-47.127c-2.592 0-5.125-.767-7.28-2.204a13.083 13.083 0 01-4.826-5.868 13.056 13.056 0 012.84-14.252 13.129 13.129 0 0114.281-2.835 13.102 13.102 0 015.881 4.817 13.065 13.065 0 012.208 7.265 13.08 13.08 0 01-3.842 9.243 13.134 13.134 0 01-9.262 3.834zm0-24.674c-2.298 0-4.545.68-6.456 1.955a11.582 11.582 0 00-1.761 17.843 11.642 11.642 0 0012.664 2.514 11.617 11.617 0 005.215-4.272 11.578 11.578 0 001.958-6.443 11.59 11.59 0 00-3.406-8.197 11.643 11.643 0 00-8.214-3.4z"/><path d="M182.463 56.257c-2.739 0-5.416-.81-7.692-2.33a13.824 13.824 0 01-5.1-6.2 13.793 13.793 0 013.001-15.058 13.87 13.87 0 0115.089-2.995 13.843 13.843 0 016.214 5.089 13.8 13.8 0 01-1.722 17.447 13.86 13.86 0 01-9.79 4.047zm-12.362-13.818c0 3.272 1.302 6.41 3.62 8.724a12.377 12.377 0 0017.483 0 12.377 12.377 0 01-17.483 0 12.325 12.325 0 01-3.62-8.724zm12.362-10.856c-2.152 0-4.255.636-6.044 1.83a10.866 10.866 0 00-4.007 4.872 10.837 10.837 0 002.358 11.83 10.889 10.889 0 0011.856 2.354 10.87 10.87 0 004.882-3.998 10.843 10.843 0 00-1.353-13.709 10.89 10.89 0 00-7.692-3.18zm-69.226-4.688a13.12 13.12 0 01-7.28-2.204 13.055 13.055 0 01-1.986-20.12 13.128 13.128 0 0114.28-2.835 13.096 13.096 0 015.881 4.816 13.057 13.057 0 012.208 7.265 13.077 13.077 0 01-3.842 9.243 13.132 13.132 0 01-9.261 3.835zm0-24.674c-2.299 0-4.545.68-6.456 1.954a11.599 11.599 0 00-4.28 5.205 11.587 11.587 0 002.519 12.638 11.639 11.639 0 0017.879-1.757 11.586 11.586 0 001.958-6.444 11.599 11.599 0 00-3.406-8.197 11.643 11.643 0 00-8.214-3.4z"/><path d="M113.236 27.635a13.86 13.86 0 01-7.692-2.329 13.815 13.815 0 01-5.099-6.2 13.787 13.787 0 01-.788-7.984 13.812 13.812 0 013.789-7.075 13.873 13.873 0 0115.089-2.995 13.84 13.84 0 016.213 5.089 13.793 13.793 0 01-1.722 17.447 13.859 13.859 0 01-9.79 4.047zm-12.362-13.818c0 3.272 1.303 6.41 3.621 8.724a12.374 12.374 0 008.741 3.613c-3.278 0-6.423-1.3-8.741-3.613a12.326 12.326 0 01-3.621-8.724zm12.362-10.856c-2.151 0-4.255.637-6.044 1.83a10.857 10.857 0 00-4.006 4.872 10.84 10.84 0 002.358 11.831 10.898 10.898 0 0011.855 2.353 10.87 10.87 0 004.882-3.998 10.836 10.836 0 00-1.353-13.708 10.89 10.89 0 00-7.692-3.18zM45.408 55.516a13.617 13.617 0 01-7.61-2.428 13.11 13.11 0 01-4.04-4.666 13.08 13.08 0 01-1.453-5.993c.103-6.311 5.395-13.067 13.103-13.067 3.476 0 6.809 1.378 9.266 3.83a13.064 13.064 0 013.838 9.247c0 3.468-1.38 6.795-3.838 9.247a13.117 13.117 0 01-9.266 3.83zm0-24.674c-6.838 0-11.526 6.001-11.62 11.612a11.587 11.587 0 001.295 5.304 11.613 11.613 0 003.58 4.126 12.034 12.034 0 006.745 2.152c3.082 0 6.038-1.222 8.217-3.397a11.585 11.585 0 003.404-8.2c0-3.075-1.225-6.025-3.404-8.2a11.633 11.633 0 00-8.217-3.397z"/><path d="M45.408 56.271a14.36 14.36 0 01-8.04-2.566 13.869 13.869 0 01-4.27-4.937 13.84 13.84 0 01-1.535-6.339c.108-6.662 5.696-13.817 13.845-13.817a13.86 13.86 0 019.79 4.047 13.803 13.803 0 014.056 9.77c0 3.665-1.46 7.18-4.056 9.77a13.86 13.86 0 01-9.79 4.048v.024zm0-1.48zm0-23.194c-6.399 0-10.794 5.626-10.879 10.882a10.838 10.838 0 004.57 8.818 11.235 11.235 0 006.309 2.013 10.89 10.89 0 007.692-3.18 10.845 10.845 0 003.187-7.676c0-2.88-1.146-5.64-3.187-7.677a10.89 10.89 0 00-7.692-3.18zm-1.8-1.347c-6.285.943-10.473 6.751-10.562 12.204.089-5.453 4.287-11.261 10.562-12.204zm30.386 83.615c-2.591 0-5.125-.767-7.28-2.204a13.081 13.081 0 01-4.826-5.869 13.051 13.051 0 012.84-14.251 13.128 13.128 0 0114.28-2.835 13.098 13.098 0 015.882 4.817 13.059 13.059 0 012.208 7.265 13.074 13.074 0 01-3.84 9.244 13.124 13.124 0 01-9.264 3.833zm0-24.674c-2.298 0-4.545.68-6.456 1.955a11.602 11.602 0 00-4.28 5.204 11.574 11.574 0 002.52 12.638 11.63 11.63 0 0012.663 2.514 11.617 11.617 0 005.215-4.271 11.58 11.58 0 001.959-6.443 11.6 11.6 0 00-3.408-8.196 11.647 11.647 0 00-8.213-3.4z"/><path d="M73.994 114.605c-2.738 0-5.415-.81-7.692-2.328a13.831 13.831 0 01-5.1-6.201 13.791 13.791 0 013.002-15.058 13.871 13.871 0 0115.089-2.995 13.84 13.84 0 016.213 5.088 13.798 13.798 0 01-1.722 17.447 13.856 13.856 0 01-9.79 4.047zm-12.362-13.817c0 3.272 1.302 6.41 3.62 8.724a12.377 12.377 0 0017.483 0 12.377 12.377 0 01-17.482 0 12.326 12.326 0 01-3.621-8.724zm12.362-10.857c-2.152 0-4.255.637-6.044 1.83a10.86 10.86 0 00-4.007 4.872 10.835 10.835 0 002.359 11.832 10.888 10.888 0 0011.855 2.353 10.877 10.877 0 004.882-3.998 10.845 10.845 0 00-1.353-13.709 10.89 10.89 0 00-7.692-3.18zm63.965 10.492c-2.591 0-5.125-.767-7.28-2.204a13.083 13.083 0 01-4.826-5.869 13.056 13.056 0 012.841-14.251 13.129 13.129 0 0114.28-2.835 13.102 13.102 0 015.881 4.816 13.065 13.065 0 012.208 7.266 13.08 13.08 0 01-3.842 9.242 13.135 13.135 0 01-9.262 3.835zm0-24.674c-2.298 0-4.545.68-6.456 1.954a11.582 11.582 0 00-1.761 17.842 11.631 11.631 0 0012.664 2.515 11.617 11.617 0 005.215-4.272 11.58 11.58 0 001.959-6.442 11.595 11.595 0 00-3.407-8.198 11.643 11.643 0 00-8.214-3.4z"/><path d="M137.959 101.163c-2.739 0-5.415-.81-7.692-2.328a13.825 13.825 0 01-5.1-6.202 13.793 13.793 0 013.002-15.058 13.87 13.87 0 0115.088-2.995 13.843 13.843 0 016.214 5.09 13.8 13.8 0 01-1.722 17.446 13.86 13.86 0 01-9.79 4.047zm-12.362-13.817a12.32 12.32 0 003.621 8.723 12.373 12.373 0 008.741 3.614c-3.279 0-6.423-1.3-8.741-3.614a12.322 12.322 0 01-3.621-8.723zm12.362-10.857c-2.152 0-4.255.637-6.044 1.83a10.867 10.867 0 00-4.007 4.872 10.837 10.837 0 002.358 11.831 10.889 10.889 0 0011.856 2.354 10.87 10.87 0 004.882-3.999 10.844 10.844 0 00-1.353-13.708 10.89 10.89 0 00-7.692-3.18zm-22.25 87.592c-2.591 0-5.125-.767-7.28-2.203a13.087 13.087 0 01-4.826-5.869 13.057 13.057 0 012.841-14.252 13.11 13.11 0 016.709-3.579 13.132 13.132 0 017.571.745 13.092 13.092 0 015.881 4.816 13.066 13.066 0 012.208 7.265 13.083 13.083 0 01-3.842 9.243 13.128 13.128 0 01-9.262 3.834zm0-24.673c-2.298 0-4.545.68-6.456 1.954a11.584 11.584 0 00-1.761 17.842 11.636 11.636 0 0017.879-1.757 11.579 11.579 0 001.959-6.443 11.594 11.594 0 00-3.407-8.197 11.64 11.64 0 00-8.214-3.399z"/><path d="M115.709 164.822c-2.739 0-5.415-.811-7.692-2.329a13.822 13.822 0 01-5.1-6.201 13.792 13.792 0 013.002-15.058 13.862 13.862 0 0121.302 2.094 13.8 13.8 0 01-1.722 17.447 13.861 13.861 0 01-9.79 4.047zm-12.362-13.818c0 3.272 1.302 6.41 3.621 8.724a12.37 12.37 0 008.741 3.613 12.37 12.37 0 01-8.741-3.613 12.323 12.323 0 01-3.621-8.724zm12.362-10.856c-2.152 0-4.255.637-6.044 1.83a10.859 10.859 0 00-4.007 4.872 10.835 10.835 0 002.358 11.831 10.891 10.891 0 0011.856 2.354 10.876 10.876 0 004.882-3.999 10.842 10.842 0 00-1.353-13.708 10.89 10.89 0 00-7.692-3.18zm-81.244 36.394c-6.789-11.76-15.823-32.57-18.88-52.566l1.484-.226c3.046 19.778 11.977 40.401 18.702 52.052l-1.306.74z"/><path d="M34.195 177.553l-.37-.641c-6.82-11.844-15.879-32.742-18.97-52.802l-.113-.736 2.932-.449.11.731c3.03 19.68 11.921 40.203 18.611 51.815l.371.642-2.57 1.44zM19.53 138.569a174.477 174.477 0 0014.265 35.283 174.457 174.457 0 01-14.26-35.308l-.005.025zm83.753 76.834c-19.843-1.717-41.215-14.854-51.49-21.17l.776-1.258c10.177 6.252 31.35 19.245 50.843 20.958l-.129 1.47z"/><path d="M103.955 216.203l-.737-.064c-20.017-1.737-41.492-14.933-51.812-21.279l-.633-.39 1.553-2.522.633.39c10.127 6.223 31.202 19.177 50.516 20.85l.737.064-.257 2.951zm-51.144-22.207c4.267 2.621 10.255 6.262 17.158 9.776-6.923-3.514-12.896-7.155-17.158-9.776zm75.325 21.407l-.128-1.48c17.064-1.481 41.091-11.799 52.464-22.503l1.019 1.076c-11.576 10.901-36.008 21.387-53.355 22.907z"/><path d="M127.461 216.203l-.262-2.961.742-.064c16.926-1.481 40.75-11.691 52.019-22.301l.539-.493 2.038 2.151-.539.494c-11.68 10.995-36.315 21.57-53.8 23.1l-.737.074zm52.974-23.737c-6.537 5.922-16.857 11.725-27.646 15.925 10.789-4.2 21.109-9.983 27.646-15.925zm16.937-16.807l-1.138-.948c9.89-11.898 19.073-35.437 19.607-50.379l1.483.049c-.544 15.214-9.865 39.173-19.952 51.278z"/><path d="M197.472 176.7l-2.284-1.89.494-.573c9.825-11.794 18.909-35.125 19.438-49.935l.03-.74 2.967.109v.74c-.549 15.342-9.954 39.513-20.121 51.721l-.524.568zm19.077-51.603c-.603 11.295-5.85 27.141-12.57 39.31 6.72-12.199 11.967-28.015 12.57-39.31zm-1.203-22.394c-1.157-14.805-11.724-38.985-23.073-52.886l1.148-.938c11.506 14.084 22.227 38.679 23.408 53.705l-1.483.119z"/><path d="M214.67 103.497l-.059-.74c-1.152-14.651-11.645-38.679-22.909-52.472l-.495-.577 2.299-1.87.465.572c11.591 14.183 22.38 38.985 23.572 54.12l.059.735-2.932.232zm-40.518-69.812c-2.572-1.658-25.778-16.255-48.632-18.639l.158-1.48c23.191 2.418 46.674 17.188 49.275 18.865l-.801 1.254z"/><path d="M174.368 34.706l-.623-.4c-2.557-1.648-25.624-16.16-48.301-18.524l-.737-.075.307-2.96.736.079c23.365 2.432 46.976 17.271 49.607 18.979l.623.4-1.612 2.501zm-118.586.953l-.801-1.244c7.13-4.555 25.88-15.584 45.917-19.62l.297 1.455c-19.794 3.983-38.352 14.903-45.413 19.41z"/><path d="M55.554 36.685l-1.597-2.497.623-.4c7.17-4.574 26.015-15.658 46.17-19.739l.732-.143.583 2.902-.727.148c-19.67 3.948-38.134 14.804-45.156 19.31l-.628.42zm.455-2.048c1.296-.819 2.908-1.81 4.792-2.906a115.494 115.494 0 00-4.792 2.906zM17.058 99.303l-1.484-.227C19.456 74.08 35.79 52.284 36.481 51.37l1.187.888c-.678.908-16.798 22.41-20.61 47.044z"/><path d="M17.674 100.146l-2.932-.454.114-.73c3.906-25.167 20.353-47.117 21.05-48.04l.445-.592 2.369 1.786-.45.592c-.678.898-16.69 22.266-20.487 46.708l-.109.73zm-1.236-1.687c3.328-20.134 14.672-38.067 18.988-44.32-4.317 6.253-15.66 24.18-18.988 44.31v.01zm101.48 40.909l-.717-.138-35.178-30.092.97-1.125 34.856 29.82 78.142-25.996-46.535-26.81-.247-1.052 23.156-34.667 1.236.82-22.716 34.01 47.277 27.24-.133 1.342-80.111 26.648z"/><path d="M117.968 140.133l-1.098-.217-.148-.123-35.741-30.571 1.928-2.251 35.108 30.028 76.18-25.345L148.813 85.5l-.395-1.673 23.735-35.53 2.472 1.643-22.691 33.966 47.01 27.087-.233 2.295-80.743 26.845zm50.234-45.138l29.174 16.812-29.174-16.812zm-18.197-10.857l18.607-27.857-18.607 27.857z"/><path d="M66.215 89.724L55.651 48.05l.974-.878 75.567 27.555-19.923-48.982 1.37-.553 20.556 50.527-.94.972-75.823-27.65 10.22 40.323-1.439.36z"/><path d="M65.683 90.622L54.805 47.798l1.636-1.48.42.153 74 26.983-19.577-48.119 2.75-1.115 21.015 51.662-1.612 1.663-74.939-27.324 10.058 39.676-2.873.725zm-9.202-42.32l5.825 22.966-5.825-22.966zm64.87 154.315l-1.484-.089 2.517-41.699.895-.681 53.636 11.508-.311 1.446-52.791-11.325-2.462 40.84z"/><path d="M122.041 203.397l-2.967-.178 2.586-42.774 1.439-1.091 54.69 11.735-.623 2.892-52.667-11.296-2.458 40.712zm-1.389-1.564l2.472-40.619-2.472 40.619zm-66.485-25.464l-1.004-.789 9.277-67.73-37.447.982-.04-1.481 38.322-1.006.757.839-9.227 67.354 49.962-19.063.529 1.387-51.129 19.507z"/><path d="M54.033 177.213l-1.661-1.318.06-.419 9.157-66.866-37.319.987-.079-2.961 39.41-1.037 1.212 1.352-9.103 66.457 49.482-18.88 1.059 2.763-52.218 19.922zm-.074-1.974l9.291-67.833-9.29 67.833zm50.378-18.806l-11.373 4.332 11.373-4.332zm-78.623-48.361l32.903-.864-32.903.864zM126.18 86.531l-42.004 8.187.284 1.453 42.004-8.187-.284-1.453z"/><path d="M83.877 96.969l-.568-2.907 43.46-8.444.568 2.907-43.46 8.444zm1.172-1.737l40.548-7.896-40.548 7.895z"/></g><defs><clipPath id="clip0_398_1108"><path fill="#fff" d="M0 0h224v227H0z"/></clipPath></defs></svg>