<svg width="140" height="160" fill="none" xmlns="http://www.w3.org/2000/svg"><path fill-rule="evenodd" clip-rule="evenodd" d="M136 4H4v152h132V4zM0 0v160h140V0H0z" fill="#186FD5"/><path fill-rule="evenodd" clip-rule="evenodd" d="M120 100H20v-2h100v2zm0 20H20v-2h100v2zm-28 20H20v-2h72v2z" fill="#186FD5"/><path d="M20 70V30h13.731c3.189 0 5.795.566 7.819 1.7 2.037 1.119 3.545 2.636 4.524 4.55.979 1.914 1.468 4.05 1.468 6.406 0 2.357-.489 4.499-1.468 6.426-.966 1.927-2.46 3.464-4.485 4.61-2.024 1.132-4.616 1.699-7.778 1.699h-9.842v-4.297h9.683c2.183 0 3.936-.371 5.259-1.114 1.322-.742 2.282-1.744 2.877-3.007.608-1.276.913-2.715.913-4.317 0-1.601-.305-3.034-.913-4.297-.595-1.263-1.561-2.252-2.897-2.968-1.336-.73-3.109-1.094-5.318-1.094H24.92V70H20zm48.01 0H55.47V30h13.096c3.942 0 7.316.8 10.12 2.402 2.805 1.589 4.955 3.874 6.45 6.856 1.494 2.969 2.242 6.523 2.242 10.664 0 4.167-.754 7.754-2.262 10.762-1.508 2.994-3.704 5.3-6.588 6.914C75.644 69.199 72.138 70 68.01 70zm-7.62-4.297h7.303c3.36 0 6.145-.638 8.354-1.914 2.21-1.276 3.856-3.092 4.941-5.45 1.085-2.356 1.627-5.162 1.627-8.417 0-3.23-.535-6.01-1.607-8.34-1.072-2.344-2.672-4.14-4.802-5.39-2.13-1.264-4.782-1.895-7.957-1.895H60.39v31.406zM95.632 70V30H120v4.297h-19.446v13.516h17.62v4.296h-17.62V70h-4.922z" fill="#186FD5"/></svg>