<svg width="233" height="215" fill="none" xmlns="http://www.w3.org/2000/svg"><g clip-path="url(#clip0_398_1077)" fill="#186FD5"><path d="M47.927 214.194c-9.32 0-18.432-2.76-26.182-7.932a47.082 47.082 0 01-17.357-21.123 47.012 47.012 0 01-2.682-27.194 47.047 47.047 0 0112.898-24.099 47.146 47.146 0 0124.129-12.881 47.185 47.185 0 0127.228 2.678 47.11 47.11 0 0121.15 17.335 47.024 47.024 0 017.942 26.149 47.091 47.091 0 01-13.819 33.266 47.207 47.207 0 01-33.307 13.801zm0-92.517a45.553 45.553 0 00-25.286 7.661 45.47 45.47 0 00-16.763 20.401 45.403 45.403 0 00-2.589 26.264 45.441 45.441 0 0012.457 23.274 45.542 45.542 0 0023.305 12.439 45.57 45.57 0 0026.296-2.589 45.51 45.51 0 0020.425-16.744 45.417 45.417 0 007.667-25.256 45.476 45.476 0 00-13.346-32.124 45.59 45.59 0 00-32.166-13.326z"/><path d="M47.929 215a47.978 47.978 0 01-26.63-8.068 47.883 47.883 0 01-17.654-21.485 47.815 47.815 0 01-2.728-27.659 47.852 47.852 0 0113.118-24.512 47.976 47.976 0 0152.236-10.377 47.916 47.916 0 0121.512 17.632 47.827 47.827 0 018.078 26.596 47.89 47.89 0 01-14.053 33.837A48.013 48.013 0 0147.928 215zM1.615 167.127a46.21 46.21 0 003.381 17.856 46.263 46.263 0 0010.007 15.178 46.33 46.33 0 0015.088 10.157 46.371 46.371 0 0050.77-10.157 46.332 46.332 0 01-32.93 13.726 46.371 46.371 0 01-17.84-3.569 46.33 46.33 0 01-15.088-10.157 46.263 46.263 0 01-10.007-15.178 46.21 46.21 0 01-3.381-17.856zm46.314-44.644a44.741 44.741 0 00-24.838 7.525 44.66 44.66 0 00-16.466 20.039 44.597 44.597 0 00-2.543 25.798 44.631 44.631 0 0012.237 22.862 44.746 44.746 0 0048.722 9.675 44.694 44.694 0 0020.062-16.447 44.611 44.611 0 007.532-24.808 44.668 44.668 0 00-13.11-31.554 44.778 44.778 0 00-31.596-13.09z"/><path d="M56.978 174.443a.818.818 0 01-.781-.598.796.796 0 01.286-.847c1.119-.865 6.696-5.521 6.561-12.719-.14-7.299-6.244-15.114-15.117-15.114-8.777 0-14.897 7.82-15.112 15.12-.21 7.089 5.142 11.848 6.217 12.729a.806.806 0 01-1.022 1.246c-1.177-.967-7.04-6.182-6.808-14.018.237-8.057 6.991-16.688 16.725-16.688 9.82 0 16.58 8.631 16.73 16.693.151 7.971-5.964 13.084-7.19 14.024a.798.798 0 01-.49.172z"/><path d="M56.977 175.254a1.613 1.613 0 01-1.613-1.821 1.577 1.577 0 01.618-1.074c1.075-.822 6.373-5.253 6.244-12.064-.13-6.918-5.916-14.324-14.31-14.324-8.304 0-14.107 7.417-14.306 14.34-.199 6.709 4.9 11.237 5.916 12.08a1.612 1.612 0 11-2.044 2.492c-1.231-1.01-7.346-6.445-7.104-14.668.247-8.433 7.352-17.467 17.532-17.467 10.293 0 17.376 9.04 17.537 17.483.156 8.357-6.222 13.696-7.529 14.679-.27.212-.599.332-.941.344zm-21.55-24.439z"/><path d="M15.365 200.82a.8.8 0 01-.667-.334.795.795 0 01-.096-.74 48.92 48.92 0 0111.632-18.262 47.887 47.887 0 0111.922-8.593.803.803 0 011.12.333.807.807 0 01-.388 1.101 46.612 46.612 0 00-11.52 8.282 47.299 47.299 0 00-11.244 17.655.806.806 0 01-.759.558z"/><path d="M15.364 201.626a1.64 1.64 0 01-.537-.091 1.628 1.628 0 01-.915-.83 1.613 1.613 0 01-.059-1.233 49.69 49.69 0 0111.831-18.557 49.02 49.02 0 0112.122-8.717 1.612 1.612 0 011.463 2.873 45.616 45.616 0 00-11.32 8.137 46.482 46.482 0 00-11.074 17.354 1.61 1.61 0 01-1.51 1.064zm7.05-14.556a47.504 47.504 0 00-2.624 3.808 39.462 39.462 0 012.625-3.808zm16.134-13.428a47.402 47.402 0 00-8.82 5.801 47.384 47.384 0 018.793-5.801h.027zm41.954 27.178a.805.805 0 01-.758-.537 46.188 46.188 0 00-11.24-17.644 45.565 45.565 0 00-11.88-8.336.802.802 0 01-.506-.782.806.806 0 011.21-.663 47.086 47.086 0 0112.305 8.626 47.903 47.903 0 0111.633 18.262.804.804 0 01-.495 1.026.77.77 0 01-.269.048z"/><path d="M80.502 201.626a1.617 1.617 0 01-1.516-1.074 45.393 45.393 0 00-11.02-17.338 44.753 44.753 0 00-11.67-8.186 1.61 1.61 0 01-.741-2.154 1.617 1.617 0 012.151-.741 47.748 47.748 0 0112.509 8.777 48.606 48.606 0 0111.83 18.573 1.61 1.61 0 01-1.543 2.143zM56.98 173.583zm128.093 40.611a47.172 47.172 0 01-26.184-7.929 47.086 47.086 0 01-17.359-21.122 47.025 47.025 0 0110.212-51.295 47.151 47.151 0 0124.13-12.883 47.176 47.176 0 0127.228 2.678 47.108 47.108 0 0121.151 17.335 47.027 47.027 0 017.942 26.149 47.09 47.09 0 01-13.816 33.264 47.206 47.206 0 01-33.304 13.803zm0-92.517a45.56 45.56 0 00-25.288 7.658 45.48 45.48 0 00-16.765 20.4 45.405 45.405 0 00-2.591 26.264 45.445 45.445 0 0012.456 23.276 45.535 45.535 0 0023.305 12.44 45.564 45.564 0 0026.297-2.588 45.504 45.504 0 0020.425-16.744 45.412 45.412 0 007.668-25.256 45.47 45.47 0 00-13.345-32.122 45.585 45.585 0 00-32.162-13.328z"/><path d="M185.071 215a47.983 47.983 0 01-26.632-8.065 47.888 47.888 0 01-17.656-21.484 47.813 47.813 0 01-2.73-27.66 47.858 47.858 0 0113.117-24.513 47.95 47.95 0 0124.542-13.103 47.987 47.987 0 0127.695 2.723 47.922 47.922 0 0121.513 17.632 47.832 47.832 0 018.078 26.597 47.895 47.895 0 01-14.053 33.834A48.02 48.02 0 01185.071 215zm-46.319-47.873a46.21 46.21 0 003.381 17.856 46.269 46.269 0 0025.094 25.335 46.37 46.37 0 0050.77-10.157 46.269 46.269 0 01-15.088 10.157 46.37 46.37 0 01-50.77-10.157 46.269 46.269 0 01-10.006-15.178 46.21 46.21 0 01-3.381-17.856zm46.319-44.644a44.748 44.748 0 00-24.839 7.522 44.659 44.659 0 00-16.468 20.038 44.592 44.592 0 00-2.546 25.799 44.632 44.632 0 0012.236 22.863 44.719 44.719 0 0022.891 12.22 44.755 44.755 0 0025.831-2.542 44.696 44.696 0 0020.063-16.447 44.613 44.613 0 007.532-24.809 44.67 44.67 0 00-13.108-31.553 44.782 44.782 0 00-31.592-13.091z"/><path d="M194.119 174.443a.808.808 0 01-.495-1.445c1.118-.865 6.701-5.521 6.561-12.719-.14-7.299-6.244-15.114-15.112-15.114-8.777 0-14.902 7.82-15.117 15.12-.21 7.089 5.141 11.848 6.217 12.729a.81.81 0 01.131 1.148.797.797 0 01-.556.293.816.816 0 01-.597-.195c-1.178-.967-7.04-6.182-6.808-14.018.236-8.057 6.991-16.688 16.73-16.688 9.815 0 16.575 8.631 16.725 16.693.151 7.971-5.964 13.084-7.19 14.024a.798.798 0 01-.489.172z"/><path d="M194.12 175.254a1.609 1.609 0 01-1.546-2.079c.098-.322.294-.606.562-.811 1.075-.822 6.372-5.253 6.243-12.063-.129-6.918-5.915-14.325-14.305-14.325-8.308 0-14.106 7.417-14.31 14.341-.199 6.708 4.899 11.236 5.916 12.079a1.611 1.611 0 01-2.049 2.487c-1.232-1.004-7.346-6.445-7.104-14.663.247-8.432 7.351-17.467 17.537-17.467 10.287 0 17.37 9.04 17.531 17.483.156 8.358-6.222 13.697-7.502 14.679a1.61 1.61 0 01-.973.339zm-21.77-24.127a16.754 16.754 0 00-3.199 9.131 16.76 16.76 0 013.199-9.137v.006z"/><path d="M152.504 200.82a.792.792 0 01-.802-.693.796.796 0 01.044-.381 48.913 48.913 0 0111.627-18.262 47.995 47.995 0 0111.923-8.593.795.795 0 01.631-.073.8.8 0 01.574.718.798.798 0 01-.474.789 46.61 46.61 0 00-11.519 8.282 47.296 47.296 0 00-11.245 17.655.808.808 0 01-.759.558z"/><path d="M152.505 201.626a1.544 1.544 0 01-.538-.091 1.635 1.635 0 01-.54-.324 1.618 1.618 0 01-.433-1.739 49.576 49.576 0 0111.831-18.557 49.011 49.011 0 0112.122-8.717 1.61 1.61 0 012.17.706 1.608 1.608 0 01-.708 2.167 45.739 45.739 0 00-11.293 8.137 46.488 46.488 0 00-11.105 17.354 1.611 1.611 0 01-1.506 1.064zm9.363-17.386zm13.794-10.598zm41.986 27.178a.804.804 0 01-.764-.537 46.174 46.174 0 00-11.239-17.644 45.56 45.56 0 00-11.88-8.336.801.801 0 01-.506-.782.803.803 0 011.211-.663 47.092 47.092 0 0112.304 8.626 47.83 47.83 0 0111.632 18.262.797.797 0 01-.094.738.796.796 0 01-.664.336z"/><path d="M217.648 201.626a1.61 1.61 0 01-1.522-1.074 45.441 45.441 0 00-11.025-17.338 44.74 44.74 0 00-11.675-8.186 1.614 1.614 0 01-.818-.918 1.618 1.618 0 01.076-1.236 1.617 1.617 0 012.151-.741 47.853 47.853 0 0112.514 8.777 48.667 48.667 0 0111.831 18.573c.141.403.116.845-.07 1.23a1.567 1.567 0 01-.919.822 1.523 1.523 0 01-.543.091zM115.237 94.934a47.168 47.168 0 01-26.183-7.93 47.08 47.08 0 01-17.36-21.121 47.013 47.013 0 01-2.684-27.195 47.05 47.05 0 0112.896-24.1 47.144 47.144 0 0124.13-12.883 47.182 47.182 0 0127.229 2.678 47.118 47.118 0 0121.15 17.335 47.029 47.029 0 017.942 26.15 47.092 47.092 0 01-13.816 33.263 47.21 47.21 0 01-33.304 13.803zm0-92.517a45.554 45.554 0 00-25.288 7.658 45.468 45.468 0 00-16.765 20.4 45.403 45.403 0 00-2.59 26.264 45.437 45.437 0 0012.455 23.276 45.53 45.53 0 0023.305 12.44 45.565 45.565 0 0026.297-2.588 45.505 45.505 0 0020.425-16.744 45.412 45.412 0 007.668-25.256A45.475 45.475 0 00147.4 15.745a45.592 45.592 0 00-32.163-13.328z"/><path d="M115.238 95.761a47.977 47.977 0 01-26.632-8.058 47.886 47.886 0 01-17.662-21.478 47.816 47.816 0 01-2.737-27.658 47.854 47.854 0 0113.108-24.516A47.952 47.952 0 01105.85.94a47.99 47.99 0 0127.695 2.713 47.924 47.924 0 0121.519 17.622 47.829 47.829 0 018.089 26.592 47.894 47.894 0 01-14.041 33.844 48.017 48.017 0 01-33.875 14.05zM68.918 47.89A46.209 46.209 0 0072.3 65.745a46.256 46.256 0 0010.007 15.177A46.321 46.321 0 0097.394 91.08a46.366 46.366 0 0050.77-10.157 46.33 46.33 0 01-15.088 10.157 46.369 46.369 0 01-50.77-10.157A46.256 46.256 0 0172.3 65.745a46.209 46.209 0 01-3.381-17.856zm46.32-44.645a44.745 44.745 0 00-24.845 7.52 44.661 44.661 0 00-16.472 20.038 44.598 44.598 0 00-2.546 25.803A44.634 44.634 0 0083.614 79.47a44.723 44.723 0 0022.897 12.218 44.758 44.758 0 0025.834-2.549 44.695 44.695 0 0020.06-16.456 44.612 44.612 0 007.523-24.816 44.672 44.672 0 00-13.105-31.549 44.78 44.78 0 00-31.585-13.095v.021z"/><path d="M124.283 55.177a.807.807 0 01-.495-1.44c1.118-.864 6.695-5.52 6.561-12.718-.14-7.3-6.244-15.114-15.112-15.114-8.777 0-14.902 7.82-15.117 15.12-.21 7.084 5.141 11.816 6.217 12.724a.813.813 0 01.308.546.799.799 0 01-.425.804.811.811 0 01-.905-.104c-1.178-.967-7.04-6.182-6.808-14.019.236-8.056 6.991-16.682 16.73-16.682 9.815 0 16.575 8.63 16.725 16.693.151 7.97-5.964 13.084-7.19 14.024a.79.79 0 01-.489.166z"/><path d="M124.28 55.983a1.615 1.615 0 01-1.28-.628 1.615 1.615 0 01-.319-1.19c.056-.422.277-.806.615-1.066 1.075-.822 6.373-5.253 6.244-12.07-.13-6.912-5.916-14.319-14.305-14.319-8.309 0-14.107 7.418-14.311 14.341-.199 6.709 4.899 11.237 5.916 12.08a1.61 1.61 0 01-.885 2.807 1.614 1.614 0 01-1.164-.32c-1.232-1.005-7.346-6.446-7.104-14.663.247-8.433 7.351-17.467 17.537-17.467 10.288 0 17.37 9.04 17.531 17.483.156 8.357-6.222 13.696-7.528 14.679a1.618 1.618 0 01-.947.333zm-21.818-24.057z"/><path d="M82.667 81.56a.817.817 0 01-.732-.46.796.796 0 01-.026-.614 48.87 48.87 0 0111.627-18.262 48.114 48.114 0 0111.922-8.567.812.812 0 01.918.08.81.81 0 01.077 1.164.813.813 0 01-.263.19 46.498 46.498 0 00-11.52 8.283 47.259 47.259 0 00-11.245 17.654.807.807 0 01-.758.532z"/><path d="M82.669 82.366a1.729 1.729 0 01-.538-.091 1.613 1.613 0 01-.973-2.063 49.652 49.652 0 0111.831-18.557 48.94 48.94 0 0112.084-8.717 1.617 1.617 0 012.17.706 1.613 1.613 0 01-.707 2.167 45.618 45.618 0 00-11.294 8.137 46.5 46.5 0 00-11.051 17.35 1.611 1.611 0 01-1.522 1.068zm23.157-27.994zm41.982 27.188a.805.805 0 01-.763-.537 46.186 46.186 0 00-11.24-17.644 45.538 45.538 0 00-11.88-8.336.807.807 0 11.705-1.445 47.073 47.073 0 0112.304 8.626 47.912 47.912 0 0111.632 18.262.792.792 0 01-.032.618.798.798 0 01-.726.456z"/><path d="M147.809 82.366a1.613 1.613 0 01-1.522-1.074 45.4 45.4 0 00-11.046-17.338 44.645 44.645 0 00-11.67-8.186 1.613 1.613 0 01-.701-2.133 1.613 1.613 0 012.115-.762 47.745 47.745 0 0112.509 8.777 48.492 48.492 0 0111.831 18.573 1.612 1.612 0 01-.984 2.052 1.503 1.503 0 01-.532.09zM115.9 122.71l-29.677 18.428.852 1.369 29.677-18.428-.852-1.369z"/><path d="M86.814 143.623l-1.705-2.744 31.041-19.283 1.705 2.734-31.04 19.293zm.538-2.218l28.303-17.58-28.303 17.58z"/><path d="M116.751 122.723l-.853 1.368 29.674 18.433.852-1.368-29.673-18.433z"/><path d="M145.826 143.623l-31.041-19.282 1.7-2.734 31.073 19.272-1.732 2.744zm-28.82-19.798l28.298 17.591-28.298-17.58v-.011z"/><path d="M117.125 94.65h-1.613v29.476h1.613V94.65z"/><path d="M117.93 93.844h-3.227v31.088h3.227V93.844z"/></g><defs><clipPath id="clip0_398_1077"><path fill="#fff" d="M0 0h233v215H0z"/></clipPath></defs></svg>