<svg width="192" height="221" fill="none" xmlns="http://www.w3.org/2000/svg"><g clip-path="url(#clip0_398_1157)" fill="#186FD5"><path d="M96.812 1.795h-1.5v3.008h1.5V1.795z"/><path d="M97.56 1.043h-2.998v4.512h2.999V1.043zm-.748 99.217h-1.5v-5.965h1.5v5.965zm0-11.931h-1.5v-5.966h1.5v5.966zm0-11.932h-1.5v-5.97h1.5v5.97zm0-11.936h-1.5v-5.966h1.5v5.966zm0-11.932h-1.5v-5.966h1.5v5.966zm0-11.932h-1.5v-5.965h1.5v5.965zm0-11.931h-1.5V22.7h1.5v5.966zm0-11.932h-1.5V10.77h1.5v5.965z"/><path d="M97.557 101.012h-2.998v-7.47h2.998v7.47zm0-11.931h-2.998v-7.475h2.998v7.475zm0-11.932h-2.998v-7.475h2.998v7.475zm0-11.936h-2.998v-7.47h2.998v7.47zm0-11.932h-2.998v-7.47h2.998v7.47zm0-11.932h-2.998v-7.47h2.998v7.47zm0-11.931h-2.998v-7.47h2.998v7.47zm0-11.932h-2.998v-7.47h2.998v7.47zm-.745 88.74h-1.5v3.008h1.5v-3.008z"/><path d="M97.56 105.474h-2.998v4.512h2.999v-4.512zm-3.443 6l-2.601 1.495.745 1.305 2.601-1.495-.745-1.305z"/><path d="M91.991 115.285l-1.499-2.612 3.903-2.241 1.499 2.612-3.903 2.241zm.555-2.05l1.304-.747-1.304.747zM9.694 161.698l-.745-1.303 5.157-2.968.745 1.308-5.157 2.963zm10.324-5.931l-.745-1.303 5.162-2.963.745 1.304-5.162 2.962zm10.318-5.93l-.74-1.304 5.163-2.963.744 1.304-5.167 2.963zm10.324-5.926l-.744-1.309 5.172-2.962.744 1.303-5.172 2.968zm10.319-5.931l-.745-1.308 5.162-2.963.745 1.303-5.162 2.968zm10.324-5.93l-.725-1.314 5.162-2.968.745 1.309-5.182 2.973zm10.324-5.931l-.745-1.304 5.157-2.967.745 1.308-5.157 2.963zm10.319-5.911l-.745-1.303 5.162-2.968.744 1.308-5.162 2.963z"/><path d="M9.421 162.726l-1.5-2.612 6.467-3.71 1.5 2.607-6.467 3.715zm.555-2.056l3.857-2.216-3.857 2.216zm9.764-3.865l-1.5-2.612 6.462-3.71 1.499 2.612-6.461 3.71zm.555-2.05l3.862-2.221-3.863 2.221zm9.769-3.881l-1.5-2.611 6.462-3.71 1.499 2.612-6.461 3.709zm.554-2.05l3.858-2.221-3.858 2.221zm9.764-3.88l-1.499-2.607 6.461-3.715 1.5 2.612-6.462 3.71zm.56-2.051l3.858-2.216-3.858 2.216zm9.764-3.88l-1.499-2.607 6.461-3.715 1.5 2.612-6.462 3.71zm.555-2.05l3.863-2.216-3.863 2.216zm9.764-3.876l-1.499-2.612 6.461-3.714 1.5 2.612-6.462 3.714zm.56-2.055l3.857-2.216-3.857 2.216zm9.764-3.875l-1.5-2.612 6.462-3.71 1.499 2.607-6.461 3.715zm.555-2.056l3.862-2.216-3.862 2.216zm9.769-3.89l-1.5-2.612 6.462-3.71 1.499 2.607-6.461 3.715zm.554-2.051l3.858-2.22-3.858 2.22zM3.805 163.338l-2.602 1.494.745 1.306 2.602-1.495-.745-1.305z"/><path d="M4.048 162.346l-3.903 2.241 1.489 2.611 3.903-2.241-1.49-2.611zm93.885-51.419l-.746 1.306 2.602 1.494.745-1.305-2.602-1.495z"/><path d="M100.055 114.764l-3.903-2.246 1.5-2.607 3.902 2.241-1.499 2.612zm-1.854-2.803l1.3.747-1.3-.747zm84.166 49.216l-5.162-2.968.744-1.304 5.162 2.963-.744 1.309zm-10.324-5.931l-5.157-2.953.745-1.303 5.161 2.968-.749 1.288zm-10.319-5.931l-5.162-2.963.745-1.308 5.162 2.968-.745 1.303zm-10.324-5.93l-5.157-2.963.745-1.309 5.157 2.968-.745 1.304zm-10.319-5.931l-5.161-2.963.744-1.303 5.162 2.962-.745 1.304zm-10.323-5.926l-5.162-2.968.749-1.303 5.157 2.978-.744 1.293zm-10.319-5.93l-5.162-2.968.745-1.304 5.161 2.963-.744 1.309zm-10.324-5.931l-5.162-2.968.745-1.303 5.162 2.962-.745 1.309z"/><path d="M182.646 162.199l-6.466-3.709 1.499-2.612 6.462 3.714-1.495 2.607zm-4.417-4.266l3.858 2.216-3.858-2.216zm-5.906-1.659l-6.461-3.715 1.499-2.612 6.461 3.715-1.499 2.612zm-4.418-4.272l3.863 2.216-3.863-2.216zm-5.886-1.659l-6.496-3.715 1.499-2.607 6.496 3.71-1.499 2.612zm-4.413-4.271l3.858 2.216-3.858-2.216zm-5.906-1.66l-6.461-3.715 1.499-2.606 6.461 3.709-1.499 2.612zm-4.417-4.271l3.862 2.221-3.862-2.216v-.005zm-5.907-1.659l-6.461-3.71 1.499-2.612 6.466 3.71-1.504 2.612zm-4.412-4.272l3.857 2.221-3.857-2.221zm-5.927-1.659l-6.461-3.71 1.499-2.612 6.461 3.715-1.499 2.607zm-4.417-4.271l3.863 2.22-3.863-2.22zm-5.906-1.66l-6.462-3.71 1.5-2.612 6.461 3.715-1.499 2.607zm-4.413-4.266l3.858 2.216-3.858-2.216zm-5.906-1.644l-6.461-3.715 1.499-2.612 6.461 3.715-1.499 2.612zm-4.418-4.272l3.858 2.216-3.858-2.216zm82.295 46.418l-.745 1.305 2.602 1.495.745-1.305-2.602-1.495z"/><path d="M190.407 166.661l-3.903-2.241 1.499-2.612 3.903 2.241-1.499 2.612zm-1.854-2.797l1.299.747-1.299-.747z"/><path d="M95.313 220.158V110.487l.374-.22 94.778-54.895.785.446v109.555l-.375.215-94.318 54.645-1.245-.075zm1.499-108.788v106.983l92.944-53.832V57.542L96.812 111.37z"/><path d="M96.711 221l-2.148-.14V110.066l.75-.436 95.147-55.126 1.539.873v110.452l-.749.431L96.711 221zm-.36-1.504l86.813-50.308-86.813 50.308zm1.205-107.705v105.244L189 164.069V58.826L97.556 111.79z"/><path d="M95.312 220.223L.773 165.463.853 56.7l.94-1.103 94.838 54.936-.075 109.68-1.244.01zm-93.04-55.647l92.785 53.762.08-106.938-92.79-53.742-.074 106.918z"/><path d="M95.117 220.975l-.18-.105L.023 165.899l.09-109.475 1.5-1.79 95.767 55.462-.075 110.879h-2.189zm-82.87-49.732l83.264 48.228-83.265-48.228zm83.629-57.081l-.075 105.279.075-105.279zM3.022 164.16l91.28 52.875.08-105.204-91.27-52.87-.09 105.199zM1.957 56.565l84.175 48.754L1.957 56.565z"/><path d="M95.767 111.686L1.113 56.54l.685-.898L96.356.892l94.114 54.49.769.446v.546l-95.472 55.312zM3.417 56.439l92.35 53.492 92.944-53.832L96.356 2.607 3.416 56.439z"/><path d="M95.768 112.538L0 56.76l1.294-1.694L96.357 0 192 55.402l-.04 1.413-96.192 55.723zM4.917 56.439l90.85 52.64 91.446-52.965-90.85-52.64L4.916 56.44zm151.989-19.632l33.3 19.291-49.82 28.857 49.82-28.856-33.3-19.292zM2.304 56.22L40.43 34.135 2.304 56.22z"/></g><defs><clipPath id="clip0_398_1157"><path fill="#fff" d="M0 0h192v221H0z"/></clipPath></defs></svg>